<svg width="173" height="26" viewBox="0 0 173 26" fill="none" xmlns="http://www.w3.org/2000/svg">
<path d="M6.34474 25.802H14.3814V19.8802H6.34474V25.802Z" fill="url(#paint0_linear_306_309)"/>
<path d="M6.34474 11.4205V17.7653H14.3814V11.4205H6.34474Z" fill="url(#paint1_linear_306_309)"/>
<path d="M0 0V9.6001H4.52812V4.19848H21.2739V21.2855H16.2021V25.802H25.802V0H0Z" fill="url(#paint2_linear_306_309)"/>
<path d="M0 25.802H4.22983V11.4205H0V25.802Z" fill="url(#paint3_linear_306_309)"/>
<path d="M44.1635 6.7791V19.9609H42.0317V18.7351C41.6645 19.1852 41.2086 19.5227 40.6638 19.7478C40.1308 19.9728 39.5386 20.0853 38.8872 20.0853C37.9753 20.0853 37.1522 19.884 36.4179 19.4813C35.6954 19.0786 35.1269 18.5101 34.7124 17.7758C34.2979 17.0297 34.0906 16.1769 34.0906 15.2176C34.0906 14.2583 34.2979 13.4115 34.7124 12.6772C35.1269 11.9429 35.6954 11.3744 36.4179 10.9717C37.1522 10.569 37.9753 10.3677 38.8872 10.3677C39.5149 10.3677 40.0894 10.4743 40.6105 10.6875C41.1316 10.9006 41.5757 11.2204 41.9429 11.6468V6.7791H44.1635ZM39.1537 18.1844C39.6867 18.1844 40.1663 18.066 40.5927 17.8291C41.0191 17.5804 41.3566 17.231 41.6053 16.781C41.854 16.3309 41.9784 15.8098 41.9784 15.2176C41.9784 14.6254 41.854 14.1043 41.6053 13.6543C41.3566 13.2042 41.0191 12.8607 40.5927 12.6239C40.1663 12.3752 39.6867 12.2508 39.1537 12.2508C38.6208 12.2508 38.1411 12.3752 37.7147 12.6239C37.2884 12.8607 36.9508 13.2042 36.7021 13.6543C36.4534 14.1043 36.329 14.6254 36.329 15.2176C36.329 15.8098 36.4534 16.3309 36.7021 16.781C36.9508 17.231 37.2884 17.5804 37.7147 17.8291C38.1411 18.066 38.6208 18.1844 39.1537 18.1844ZM55.9157 13.4944C56.6026 13.7194 57.1474 14.0984 57.5501 14.6314C57.9528 15.1525 58.1541 15.8039 58.1541 16.5855C58.1541 17.6633 57.7396 18.4983 56.9105 19.0904C56.0815 19.6708 54.8734 19.9609 53.2864 19.9609H47.1041V7.52524H52.9311C54.3997 7.52524 55.5308 7.81541 56.3243 8.39574C57.1178 8.96423 57.5145 9.75182 57.5145 10.7585C57.5145 11.3744 57.3724 11.9192 57.0882 12.3929C56.8039 12.8667 56.4131 13.2338 55.9157 13.4944ZM49.4136 9.3373V12.766H52.6824C53.4877 12.766 54.1036 12.6239 54.53 12.3396C54.9682 12.0435 55.1873 11.6172 55.1873 11.0605C55.1873 10.492 54.9682 10.0657 54.53 9.78143C54.1036 9.48534 53.4877 9.3373 52.6824 9.3373H49.4136ZM53.1443 18.1489C54.9327 18.1489 55.8268 17.5508 55.8268 16.3546C55.8268 15.1584 54.9327 14.5603 53.1443 14.5603H49.4136V18.1489H53.1443ZM60.2281 6.7791H62.4487V19.9609H60.2281V6.7791ZM69.4493 20.0853C68.49 20.0853 67.6254 19.878 66.8556 19.4635C66.0858 19.049 65.4818 18.4746 65.0436 17.7403C64.6172 16.9941 64.404 16.1532 64.404 15.2176C64.404 14.282 64.6172 13.447 65.0436 12.7127C65.4818 11.9784 66.0858 11.404 66.8556 10.9895C67.6254 10.5749 68.49 10.3677 69.4493 10.3677C70.4205 10.3677 71.291 10.5749 72.0608 10.9895C72.8307 11.404 73.4288 11.9784 73.8551 12.7127C74.2933 13.447 74.5124 14.282 74.5124 15.2176C74.5124 16.1532 74.2933 16.9941 73.8551 17.7403C73.4288 18.4746 72.8307 19.049 72.0608 19.4635C71.291 19.878 70.4205 20.0853 69.4493 20.0853ZM69.4493 18.1844C70.2665 18.1844 70.9416 17.912 71.4746 17.3672C72.0075 16.8224 72.274 16.1059 72.274 15.2176C72.274 14.3293 72.0075 13.6128 71.4746 13.068C70.9416 12.5232 70.2665 12.2508 69.4493 12.2508C68.6321 12.2508 67.9571 12.5232 67.4241 13.068C66.903 13.6128 66.6424 14.3293 66.6424 15.2176C66.6424 16.1059 66.903 16.8224 67.4241 17.3672C67.9571 17.912 68.6321 18.1844 69.4493 18.1844ZM80.8108 20.0853C79.8278 20.0853 78.9454 19.878 78.1638 19.4635C77.3821 19.049 76.7722 18.4746 76.3339 17.7403C75.8957 16.9941 75.6766 16.1532 75.6766 15.2176C75.6766 14.282 75.8957 13.447 76.3339 12.7127C76.7722 11.9784 77.3762 11.404 78.146 10.9895C78.9277 10.5749 79.8159 10.3677 80.8108 10.3677C81.7464 10.3677 82.5636 10.5572 83.2624 10.9362C83.973 11.3152 84.506 11.86 84.8613 12.5706L83.1558 13.5654C82.8834 13.1272 82.5399 12.8015 82.1254 12.5883C81.7227 12.3633 81.2786 12.2508 80.793 12.2508C79.964 12.2508 79.2771 12.5232 78.7323 13.068C78.1875 13.601 77.9151 14.3175 77.9151 15.2176C77.9151 16.1177 78.1815 16.8402 78.7145 17.385C79.2593 17.9179 79.9521 18.1844 80.793 18.1844C81.2786 18.1844 81.7227 18.0778 82.1254 17.8646C82.5399 17.6396 82.8834 17.308 83.1558 16.8698L84.8613 17.8646C84.4941 18.5752 83.9553 19.126 83.2446 19.5168C82.5459 19.8958 81.7346 20.0853 80.8108 20.0853ZM90.3893 15.8927L88.7372 17.456V19.9609H86.5165V6.7791H88.7372V14.7379L93.3384 10.4743H96.0032L92.0415 14.4537L96.3762 19.9609H93.6759L90.3893 15.8927ZM101.586 20.0853C100.603 20.0853 99.7211 19.878 98.9394 19.4635C98.1578 19.049 97.5478 18.4746 97.1096 17.7403C96.6714 16.9941 96.4523 16.1532 96.4523 15.2176C96.4523 14.282 96.6714 13.447 97.1096 12.7127C97.5478 11.9784 98.1518 11.404 98.9217 10.9895C99.7033 10.5749 100.592 10.3677 101.586 10.3677C102.522 10.3677 103.339 10.5572 104.038 10.9362C104.749 11.3152 105.282 11.86 105.637 12.5706L103.931 13.5654C103.659 13.1272 103.316 12.8015 102.901 12.5883C102.498 12.3633 102.054 12.2508 101.569 12.2508C100.74 12.2508 100.053 12.5232 99.5079 13.068C98.9631 13.601 98.6907 14.3175 98.6907 15.2176C98.6907 16.1177 98.9572 16.8402 99.4902 17.385C100.035 17.9179 100.728 18.1844 101.569 18.1844C102.054 18.1844 102.498 18.0778 102.901 17.8646C103.316 17.6396 103.659 17.308 103.931 16.8698L105.637 17.8646C105.27 18.5752 104.731 19.126 104.02 19.5168C103.322 19.8958 102.51 20.0853 101.586 20.0853ZM112.675 10.3677C113.871 10.3677 114.831 10.7171 115.553 11.4158C116.275 12.1146 116.637 13.1509 116.637 14.5248V19.9609H114.416V14.809C114.416 13.98 114.221 13.3582 113.83 12.9437C113.439 12.5173 112.882 12.3041 112.16 12.3041C111.343 12.3041 110.697 12.5528 110.223 13.0502C109.75 13.5358 109.513 14.2405 109.513 15.1643V19.9609H107.292V6.7791H109.513V11.5757C109.88 11.1849 110.33 10.8888 110.863 10.6875C111.408 10.4743 112.012 10.3677 112.675 10.3677ZM122.9 10.3677C124.298 10.3677 125.364 10.7052 126.098 11.3803C126.844 12.0435 127.217 13.0502 127.217 14.4004V19.9609H125.121V18.8062C124.848 19.2207 124.458 19.5405 123.948 19.7655C123.451 19.9787 122.847 20.0853 122.136 20.0853C121.426 20.0853 120.804 19.9669 120.271 19.73C119.738 19.4813 119.323 19.1437 119.027 18.7174C118.743 18.2792 118.601 17.7877 118.601 17.2428C118.601 16.3901 118.915 15.7091 119.543 15.1998C120.182 14.6787 121.183 14.4182 122.545 14.4182H124.997V14.276C124.997 13.6128 124.795 13.1035 124.392 12.7482C124.002 12.3929 123.415 12.2153 122.634 12.2153C122.101 12.2153 121.574 12.2982 121.053 12.464C120.543 12.6298 120.111 12.8607 119.756 13.1568L118.885 11.5402C119.383 11.1612 119.981 10.871 120.68 10.6697C121.378 10.4684 122.119 10.3677 122.9 10.3677ZM122.598 18.4687C123.155 18.4687 123.646 18.3443 124.073 18.0956C124.511 17.835 124.819 17.4679 124.997 16.9941V15.8927H122.705C121.426 15.8927 120.786 16.3131 120.786 17.154C120.786 17.5567 120.946 17.8765 121.266 18.1133C121.586 18.3502 122.03 18.4687 122.598 18.4687ZM129.889 10.4743H132.11V19.9609H129.889V10.4743ZM131.009 8.91093C130.606 8.91093 130.268 8.78658 129.996 8.53786C129.724 8.2773 129.587 7.95753 129.587 7.57854C129.587 7.19954 129.724 6.88569 129.996 6.63698C130.268 6.37642 130.606 6.24614 131.009 6.24614C131.411 6.24614 131.749 6.3705 132.021 6.61921C132.294 6.85608 132.43 7.15809 132.43 7.52524C132.43 7.91608 132.294 8.2477 132.021 8.5201C131.761 8.78065 131.423 8.91093 131.009 8.91093ZM140.23 10.3677C141.426 10.3677 142.385 10.7171 143.108 11.4158C143.83 12.1146 144.192 13.1509 144.192 14.5248V19.9609H141.971V14.809C141.971 13.98 141.776 13.3582 141.385 12.9437C140.994 12.5173 140.437 12.3041 139.715 12.3041C138.898 12.3041 138.252 12.5528 137.778 13.0502C137.305 13.5358 137.068 14.2405 137.068 15.1643V19.9609H134.847V10.4743H136.961V11.7001C137.328 11.2619 137.79 10.9303 138.347 10.7052C138.903 10.4802 139.531 10.3677 140.23 10.3677ZM155.836 15.2709C155.836 15.4249 155.824 15.644 155.8 15.9282H148.357C148.487 16.627 148.825 17.1836 149.369 17.5982C149.926 18.0008 150.613 18.2022 151.43 18.2022C152.472 18.2022 153.331 17.8587 154.006 17.1718L155.196 18.5397C154.77 19.049 154.231 19.4339 153.58 19.6945C152.928 19.955 152.194 20.0853 151.377 20.0853C150.335 20.0853 149.417 19.878 148.623 19.4635C147.83 19.049 147.214 18.4746 146.776 17.7403C146.349 16.9941 146.136 16.1532 146.136 15.2176C146.136 14.2938 146.343 13.4648 146.758 12.7305C147.184 11.9843 147.77 11.404 148.517 10.9895C149.263 10.5749 150.104 10.3677 151.039 10.3677C151.963 10.3677 152.786 10.5749 153.509 10.9895C154.243 11.3922 154.811 11.9666 155.214 12.7127C155.629 13.447 155.836 14.2997 155.836 15.2709ZM151.039 12.1442C150.329 12.1442 149.725 12.3574 149.227 12.7838C148.742 13.1983 148.446 13.7549 148.339 14.4537H153.722C153.627 13.7668 153.337 13.2101 152.851 12.7838C152.366 12.3574 151.762 12.1442 151.039 12.1442ZM159.905 11.86C160.545 10.8651 161.67 10.3677 163.281 10.3677V12.4818C163.091 12.4462 162.92 12.4285 162.766 12.4285C161.901 12.4285 161.226 12.6831 160.74 13.1924C160.255 13.6898 160.012 14.4122 160.012 15.3597V19.9609H157.791V10.4743H159.905V11.86ZM167.953 20.0853C167.183 20.0853 166.431 19.9846 165.697 19.7833C164.962 19.5819 164.376 19.3273 163.938 19.0194L164.791 17.3317C165.217 17.6159 165.726 17.8469 166.319 18.0245C166.923 18.1903 167.515 18.2732 168.095 18.2732C169.422 18.2732 170.085 17.9239 170.085 17.2251C170.085 16.8935 169.913 16.6625 169.57 16.5322C169.238 16.402 168.699 16.2776 167.953 16.1592C167.171 16.0407 166.532 15.9045 166.034 15.7506C165.549 15.5966 165.122 15.3301 164.755 14.9511C164.4 14.5603 164.222 14.0214 164.222 13.3345C164.222 12.4344 164.595 11.7178 165.341 11.1849C166.099 10.6401 167.118 10.3677 168.397 10.3677C169.048 10.3677 169.7 10.4447 170.351 10.5986C171.003 10.7408 171.536 10.9362 171.95 11.1849L171.097 12.8726C170.292 12.3988 169.386 12.162 168.379 12.162C167.728 12.162 167.231 12.2626 166.887 12.464C166.555 12.6535 166.39 12.9081 166.39 13.2279C166.39 13.5832 166.567 13.8378 166.923 13.9918C167.29 14.1339 167.852 14.2701 168.61 14.4004C169.368 14.5188 169.99 14.655 170.476 14.809C170.961 14.963 171.376 15.2235 171.719 15.5907C172.075 15.9578 172.252 16.4789 172.252 17.154C172.252 18.0423 171.867 18.7529 171.097 19.2859C170.328 19.8188 169.279 20.0853 167.953 20.0853Z" fill="white"/>
<defs>
<linearGradient id="paint0_linear_306_309" x1="1.05746" y1="25.802" x2="25.802" y2="0.845967" gradientUnits="userSpaceOnUse">
<stop stop-color="#FFE178"/>
<stop offset="1" stop-color="#FFB179"/>
</linearGradient>
<linearGradient id="paint1_linear_306_309" x1="1.05746" y1="25.802" x2="25.802" y2="0.845967" gradientUnits="userSpaceOnUse">
<stop stop-color="#FFE178"/>
<stop offset="1" stop-color="#FFB179"/>
</linearGradient>
<linearGradient id="paint2_linear_306_309" x1="1.05746" y1="25.802" x2="25.802" y2="0.845967" gradientUnits="userSpaceOnUse">
<stop stop-color="#FFE178"/>
<stop offset="1" stop-color="#FFB179"/>
</linearGradient>
<linearGradient id="paint3_linear_306_309" x1="1.05746" y1="25.802" x2="25.802" y2="0.845967" gradientUnits="userSpaceOnUse">
<stop stop-color="#FFE178"/>
<stop offset="1" stop-color="#FFB179"/>
</linearGradient>
</defs>
</svg>
