<svg width="32" height="32" viewBox="0 0 32 32" fill="none" xmlns="http://www.w3.org/2000/svg">
<mask id="mask0_75_767" style="mask-type:alpha" maskUnits="userSpaceOnUse" x="1" y="1" width="30" height="30">
<path d="M6.6665 10.6667C8.87564 10.6667 10.6665 8.87589 10.6665 6.66675C10.6665 4.45761 8.87564 2.66675 6.6665 2.66675C4.45736 2.66675 2.6665 4.45761 2.6665 6.66675C2.6665 8.87589 4.45736 10.6667 6.6665 10.6667Z" stroke="#292D32" stroke-width="2.5" stroke-linecap="round" stroke-linejoin="round"/>
<path d="M25.3335 20C27.5426 20 29.3335 18.2091 29.3335 16C29.3335 13.7909 27.5426 12 25.3335 12C23.1244 12 21.3335 13.7909 21.3335 16C21.3335 18.2091 23.1244 20 25.3335 20Z" stroke="#292D32" stroke-width="2.5" stroke-linecap="round" stroke-linejoin="round"/>
<path d="M6.6665 29.3333C8.87564 29.3333 10.6665 27.5424 10.6665 25.3333C10.6665 23.1241 8.87564 21.3333 6.6665 21.3333C4.45736 21.3333 2.6665 23.1241 2.6665 25.3333C2.6665 27.5424 4.45736 29.3333 6.6665 29.3333Z" stroke="#292D32" stroke-width="2.5" stroke-linecap="round" stroke-linejoin="round"/>
<path d="M21.3332 16.0001H11.9998C9.0665 16.0001 6.6665 14.6667 6.6665 10.6667V21.3334" stroke="#292D32" stroke-width="2.5" stroke-linecap="round" stroke-linejoin="round"/>
</mask>
<g mask="url(#mask0_75_767)">
<rect width="32" height="32" fill="url(#paint0_linear_75_767)"/>
</g>
<defs>
<linearGradient id="paint0_linear_75_767" x1="6.84366" y1="-14.5263" x2="28.8649" y2="-2.19923" gradientUnits="userSpaceOnUse">
<stop stop-color="#FFCF88"/>
<stop offset="1" stop-color="white"/>
</linearGradient>
</defs>
</svg>
