<svg width="32" height="32" viewBox="0 0 32 32" fill="none" xmlns="http://www.w3.org/2000/svg">
<mask id="mask0_75_791" style="mask-type:alpha" maskUnits="userSpaceOnUse" x="1" y="1" width="30" height="30">
<path d="M15.9998 19.8401C14.7865 19.8401 13.7998 18.8534 13.7998 17.6401V14.3468C13.7998 13.1334 14.7865 12.1467 15.9998 12.1467C17.2131 12.1467 18.1998 13.1334 18.1998 14.3468V17.6401C18.1998 18.8534 17.2131 19.8401 15.9998 19.8401Z" stroke="#292D32" stroke-width="2.5" stroke-linecap="round"/>
<path d="M22.6402 17.96C22.3735 21.4 19.4935 24.0934 16.0002 24.0934C12.3202 24.0934 9.3335 21.1068 9.3335 17.4268V14.5734C9.3335 10.8934 12.3202 7.90674 16.0002 7.90674C19.4535 7.90674 22.2935 10.5334 22.6268 13.8934" stroke="#292D32" stroke-width="2.5" stroke-linecap="round"/>
<path d="M20 2.66675H22.6667C26.6667 2.66675 29.3333 5.33341 29.3333 9.33341V12.0001" stroke="#292D32" stroke-width="2.5" stroke-miterlimit="10" stroke-linecap="round" stroke-linejoin="round"/>
<path d="M2.6665 12.0001V9.33341C2.6665 5.33341 5.33317 2.66675 9.33317 2.66675H11.9998" stroke="#292D32" stroke-width="2.5" stroke-miterlimit="10" stroke-linecap="round" stroke-linejoin="round"/>
<path d="M20 29.3333H22.6667C26.6667 29.3333 29.3333 26.6667 29.3333 22.6667V20" stroke="#292D32" stroke-width="2.5" stroke-miterlimit="10" stroke-linecap="round" stroke-linejoin="round"/>
<path d="M2.6665 20V22.6667C2.6665 26.6667 5.33317 29.3333 9.33317 29.3333H11.9998" stroke="#292D32" stroke-width="2.5" stroke-miterlimit="10" stroke-linecap="round" stroke-linejoin="round"/>
</mask>
<g mask="url(#mask0_75_791)">
<rect width="32" height="32" fill="url(#paint0_linear_75_791)"/>
</g>
<defs>
<linearGradient id="paint0_linear_75_791" x1="6.84366" y1="-14.5263" x2="28.8649" y2="-2.19923" gradientUnits="userSpaceOnUse">
<stop stop-color="#FFCF88"/>
<stop offset="1" stop-color="white"/>
</linearGradient>
</defs>
</svg>
