<svg width="32" height="32" viewBox="0 0 32 32" fill="none" xmlns="http://www.w3.org/2000/svg">
<mask id="mask0_75_775" style="mask-type:alpha" maskUnits="userSpaceOnUse" x="3" y="1" width="26" height="30">
<path d="M13.9869 2.97333L7.33354 5.48C5.80021 6.05333 4.54688 7.86666 4.54688 9.49333V19.4C4.54688 20.9733 5.58687 23.04 6.85354 23.9867L12.5869 28.2667C14.4669 29.68 17.5602 29.68 19.4402 28.2667L25.1735 23.9867C26.4402 23.04 27.4802 20.9733 27.4802 19.4V9.49333C27.4802 7.85333 26.2269 6.04 24.6935 5.46666L18.0402 2.97333C16.9069 2.56 15.0935 2.56 13.9869 2.97333Z" stroke="#292D32" stroke-width="2.5" stroke-linecap="round" stroke-linejoin="round"/>
<path d="M12.0664 15.8267L14.2131 17.9733L19.9464 12.24" stroke="#292D32" stroke-width="2.5" stroke-linecap="round" stroke-linejoin="round"/>
</mask>
<g mask="url(#mask0_75_775)">
<rect width="32" height="32" fill="url(#paint0_linear_75_775)"/>
</g>
<defs>
<linearGradient id="paint0_linear_75_775" x1="6.84366" y1="-14.5263" x2="28.8649" y2="-2.19923" gradientUnits="userSpaceOnUse">
<stop stop-color="#FFCF88"/>
<stop offset="1" stop-color="white"/>
</linearGradient>
</defs>
</svg>
