<svg width="796" height="445" viewBox="0 0 796 445" fill="none" xmlns="http://www.w3.org/2000/svg">
<path fill-rule="evenodd" clip-rule="evenodd" d="M281.774 0.256566C273.189 0.91053 265.917 2.95329 257.945 6.94978C243.155 14.3642 231.14 28.1721 225.713 43.9893C215.94 72.4748 226.014 103.488 250.605 120.619C258.176 125.893 267.305 129.549 276.801 131.109C281.894 131.946 291.984 131.946 297.078 131.109C303.945 129.981 309.604 128.136 315.934 124.963C330.723 117.549 342.739 103.741 348.166 87.9239C357.938 59.4383 347.865 28.4256 323.273 11.2939C319.948 8.97738 313.414 5.47583 310.178 4.27677C301.282 0.980125 291.132 -0.456495 281.774 0.256566ZM503.483 0.0952133C477.544 2.43385 455.503 19.9587 447.3 44.7669C441.683 61.7529 442.886 79.6774 450.714 95.6229C455.681 105.743 464.314 115.441 473.975 121.755C480.515 126.029 489.726 129.624 497.935 131.108C503.233 132.065 514.445 132.065 519.743 131.108C543.469 126.821 562.812 110.027 570.378 87.1462C575.995 70.1603 574.792 52.2358 566.965 36.2903C561.997 26.1698 553.364 16.4719 543.703 10.1582C537.184 5.89768 527.813 2.23479 519.934 0.867761C516.335 0.243346 506.803 -0.204164 503.483 0.0952133ZM725.383 0.0952133C699.444 2.43385 677.403 19.9587 669.2 44.7669C663.583 61.7529 664.786 79.6774 672.613 95.6229C677.581 105.743 686.214 115.441 695.875 121.755C702.414 126.029 711.626 129.624 719.835 131.108C725.132 132.065 736.345 132.065 741.643 131.108C765.369 126.821 784.712 110.027 792.278 87.1462C797.895 70.1603 796.692 52.2358 788.864 36.2903C783.896 26.1698 775.264 16.4719 765.603 10.1582C759.084 5.89768 749.712 2.23479 741.834 0.867761C738.235 0.243346 728.703 -0.204164 725.383 0.0952133ZM0 49.0437V82.675H8.22559H16.4512L16.4542 66.0538C16.4558 56.4827 16.6253 48.3606 16.8537 46.9053C17.7397 41.2584 21.1394 36.5815 26.1979 34.0496C28.7437 32.7759 29.0914 32.7079 33.7288 32.5784C37.6533 32.4691 38.6982 32.3191 39.1473 31.8008C39.453 31.4478 42.0569 27.6597 44.9328 23.3829L50.1623 15.6068L41.4367 15.4902C36.6376 15.426 31.1322 15.5571 29.2028 15.7818C25.841 16.1729 19.8945 17.97 18.0906 19.1399C16.6953 20.0446 16.4512 19.8078 16.4512 17.5508V15.4124H8.22559H0V49.0437ZM50.597 23.5613C47.5983 28.0255 45.1451 31.8653 45.1451 32.0939C45.1451 32.3789 49.295 32.5418 58.347 32.6118L71.5485 32.7141L68.3818 37.3797C66.6403 39.9458 63.5586 44.5025 61.5336 47.506L57.8519 52.9663L61.8216 59.9477C64.0047 63.7871 65.8373 67.0596 65.8935 67.2198C65.9498 67.38 66.9127 67.1572 68.0329 66.7245C78.4745 62.6922 89.2592 68.8399 91.1231 79.8862C92.3313 87.0463 88.5881 94.4056 82.0731 97.6773C71.9265 102.774 59.96 96.5883 58.0509 85.2598L57.6151 82.675H49.4102H41.2056L41.4291 85.8826C42.2248 97.3107 50.0744 108.55 60.6682 113.432C65.4566 115.638 68.5406 116.28 74.4129 116.293C78.8199 116.302 80.3335 116.148 82.9538 115.421C95.4716 111.946 104.887 101.583 107.349 88.57C109.049 79.5891 106.782 69.8115 101.222 62.1463C96.925 56.2214 89.9184 51.3699 83.1168 49.6106C82.0122 49.3248 81.1082 48.9384 81.1082 48.7517C81.1082 48.5651 83.5185 44.8532 86.4644 40.5037L91.8206 32.5951V24.0038V15.4124L73.9347 15.4284L56.0488 15.4439L50.597 23.5613ZM509.696 17.4536C510.037 17.7211 515.03 24.5038 520.791 32.5263L531.266 47.1129L536.375 70.8625C539.185 83.9246 541.388 94.8678 541.27 95.1812C541.101 95.6276 513.646 113.428 509.688 115.657C508.821 116.145 507.876 115.603 492.689 105.937C483.845 100.306 476.517 95.4623 476.407 95.1715C476.296 94.8811 478.509 83.946 481.324 70.8714L486.443 47.0997L496.917 32.5197C506.601 19.0399 508.189 16.9676 508.839 16.9676C508.969 16.9676 509.355 17.1865 509.696 17.4536ZM729.652 29.5776C746.414 33.7281 760.542 37.3564 761.047 37.6406C761.552 37.9248 764.662 40.0819 767.956 42.4341C773.743 46.5647 775.019 47.8758 774.675 49.3384C774.603 49.6413 764.829 64.2828 752.954 81.8753C739.194 102.261 731.028 114.016 730.441 114.288C729.731 114.617 729.293 114.585 728.531 114.15C727.673 113.66 726.636 111.028 720.72 94.3391C701.059 38.8653 696.306 25.2265 696.306 24.2755C696.306 23.1958 697.502 22.0182 698.591 22.0267C698.913 22.029 712.89 25.4272 729.652 29.5776ZM504.598 27.7954C503.424 29.4314 499.653 34.6764 496.219 39.4512L489.977 48.132L492.014 54.7117C493.135 58.3302 494.16 61.291 494.293 61.291C494.425 61.291 497.325 56.2941 500.738 50.1864L506.943 39.0823L506.839 31.9513L506.735 24.8202L504.598 27.7954ZM510.752 31.821V39.0278L516.952 50.1596C520.361 56.2817 523.259 61.291 523.39 61.291C523.76 61.291 527.681 48.494 527.475 47.9609C527.33 47.5865 511.466 25.3957 510.9 24.7759C510.819 24.6869 510.752 27.8572 510.752 31.821ZM716.88 43.5033C723.562 51.6825 730.13 59.7362 731.475 61.3998C732.821 63.0635 734.081 64.3707 734.277 64.3046C734.472 64.2385 739.347 59.0281 745.109 52.7261C753.567 43.4761 755.458 41.2129 754.927 40.9831C754.231 40.683 705.55 28.6317 705.032 28.6317C704.867 28.6317 710.198 35.3241 716.88 43.5033ZM702.589 32.3253C714.426 65.8862 727.84 103.622 728.088 104.059C728.345 104.511 728.423 104.523 728.432 104.111C728.445 103.512 729.941 88.6564 731.251 76.1183L732.118 67.8119L717.613 50.0686C701.838 30.7709 702.186 31.1814 702.589 32.3253ZM290.01 36.6075C292.747 38.0457 293.939 42.4532 292.314 45.1254C289.99 48.9461 285.164 49.522 282.388 46.3089C280.905 44.592 280.332 42.5173 280.827 40.6503C281.919 36.5298 286.241 34.627 290.01 36.6075ZM269.914 41.111C274.094 42.2638 275.834 46.8408 273.532 50.6269C270.612 55.4271 263.27 53.8077 262.214 48.1316C261.583 44.7378 264.281 41.3945 268.193 40.7218C268.298 40.7036 269.073 40.8789 269.914 41.111ZM309.13 41.9481C311.034 43.2696 311.885 45.1374 311.703 47.6017C311.533 49.9003 310.724 51.2712 308.712 52.6744C307.605 53.4453 307.043 53.5604 305.004 53.4325C302.855 53.298 302.457 53.1362 301.248 51.9076C298.276 48.8874 298.995 44.1557 302.783 41.8085C304.481 40.7564 307.507 40.8229 309.13 41.9481ZM750.589 52.067C745.83 57.247 741.966 61.525 742.004 61.5736C742.041 61.6222 747.802 58.6242 754.807 54.9115L767.543 48.1612L763.703 45.3948C761.592 43.8735 759.724 42.6332 759.553 42.6386C759.381 42.6445 755.348 46.8871 750.589 52.067ZM502.335 54.3719C498.863 60.6117 495.967 65.9465 495.898 66.2268C495.83 66.5067 497.433 72.0281 499.458 78.4962C501.485 84.9643 503.318 90.8251 503.534 91.5203L503.925 92.7839H508.841H513.758L515.859 86.077C517.015 82.3881 518.848 76.5331 519.934 73.065C521.02 69.5973 521.851 66.5145 521.782 66.214C521.61 65.471 509.079 43.0177 508.839 43.0224C508.734 43.0243 505.807 48.1316 502.335 54.3719ZM751.59 60.7505C743.383 65.0969 736.415 68.8061 736.105 68.9931C735.689 69.2443 735.364 71.1051 734.865 76.1016C734.493 79.824 733.704 87.6264 733.112 93.4406C732.52 99.2547 732.149 103.94 732.289 103.852C732.428 103.765 734.406 100.932 736.683 97.558C738.961 94.1839 746.656 82.7862 753.783 72.2299C760.91 61.6739 766.69 52.9943 766.626 52.9426C766.563 52.8905 759.796 56.4045 751.59 60.7505ZM257.588 54.8279C259.77 55.7766 261.029 57.5138 261.218 59.8357C261.554 63.9403 259.076 66.824 255.216 66.824C248.825 66.824 246.695 58.8742 252.094 55.1767C253.579 54.1596 255.736 54.0223 257.588 54.8279ZM322.468 55.4212C325.12 57.3404 325.95 61.5056 324.164 63.9356C321.3 67.8337 316.448 67.8042 313.559 63.8714C312.343 62.2163 312.462 58.7163 313.795 56.9399C314.356 56.1934 315.386 55.2863 316.085 54.9243C317.822 54.0243 320.865 54.2614 322.468 55.4212ZM488.179 55.1771C488.179 55.3069 486.887 61.4119 485.307 68.7435C483.727 76.0751 482.48 82.2108 482.535 82.3784C482.589 82.546 484.724 78.9138 487.278 74.3069L491.922 65.9309L490.278 60.6662C488.842 56.0729 488.179 54.3384 488.179 55.1771ZM527.567 60.1926C526.677 63.0421 525.944 65.5744 525.938 65.8197C525.933 66.0654 527.957 69.9146 530.437 74.3734C534.643 81.9351 535.97 84.128 535.461 82.675C535.348 82.3543 533.962 76.0713 532.38 68.7128C530.797 61.354 529.431 55.2611 529.345 55.1728C529.257 55.0841 528.458 57.3431 527.567 60.1926ZM280.345 57.1541C284.223 59.7365 283.758 66.0052 279.538 68.0402C276.381 69.5631 272.371 68.0021 271.091 64.7517C268.838 59.0274 275.252 53.7618 280.345 57.1541ZM300.536 57.0421C301.175 57.4333 302.079 58.4418 302.544 59.2836C306.115 65.7396 297.803 71.9406 292.696 66.6315C287.668 61.4057 294.337 53.2498 300.536 57.0421ZM119.653 66.1382C112.865 67.9161 111.536 76.9919 117.48 80.9892C122.965 84.6777 131.078 79.4585 129.887 73.0083C128.938 67.8687 124.478 64.8742 119.653 66.1382ZM488.273 79.6175C485.487 84.6136 482.687 89.6202 482.052 90.7427L480.895 92.7839H490.618H500.342L498.242 86.077C497.086 82.3881 495.511 77.3819 494.74 74.9519L493.338 70.5336L488.273 79.6175ZM520.901 81.5191C519.035 87.4997 517.599 92.4841 517.708 92.5953C517.818 92.7065 522.125 92.7508 527.281 92.6937L536.655 92.5895L530.637 81.7823C527.326 75.8383 524.544 70.901 524.455 70.8104C524.366 70.7194 522.766 75.5386 520.901 81.5191ZM253.69 74.3073C255.346 75.4044 256.332 77.3601 256.332 79.5456C256.332 85.0739 249.817 87.8095 245.968 83.8978C243.431 81.3201 243.26 77.8356 245.543 75.2563C247.637 72.8901 250.967 72.5024 253.69 74.3073ZM270.156 73.9601C274.584 76.2587 274.493 82.733 270 85.0627C264.951 87.6801 259.239 82.3745 261.45 77.1222C262.94 73.5845 266.759 72.1972 270.156 73.9601ZM309.718 74.135C313.284 76.3617 313.449 81.8442 310.03 84.4946C305.172 88.2602 298.148 82.7948 300.622 77.1743C301.514 75.1482 302.462 74.231 304.417 73.5055C306.122 72.873 308.066 73.1035 309.718 74.135ZM326.79 73.9659C329.138 75.1848 330.455 78.2948 329.739 80.9289C329.186 82.9639 326.903 85.2551 325.083 85.6019C321.059 86.3694 317.546 83.5471 317.546 79.5456C317.546 74.607 322.391 71.6825 326.79 73.9659ZM485.508 97.1979C488.437 99.2096 505.479 109.934 505.565 109.82C505.615 109.752 504.706 106.679 503.545 102.99L501.435 96.2831H492.805H484.176L485.508 97.1979ZM506.003 99.2963C506.515 100.953 507.32 103.576 507.791 105.125C508.262 106.673 508.738 107.941 508.848 107.944C508.958 107.946 509.797 105.542 510.712 102.601C511.627 99.661 512.455 97.0366 512.552 96.7691C512.686 96.4009 511.802 96.2831 508.901 96.2831H505.073L506.003 99.2963ZM514.128 103.087C512.956 106.829 512.073 109.891 512.164 109.891C512.37 109.891 532.613 97.0568 533.114 96.6081C533.314 96.4293 529.603 96.2831 524.867 96.2831H516.257L514.128 103.087ZM68.6558 150.873C67.5574 151.359 66.1873 152.97 66.1873 153.774C66.1873 153.975 66.7237 154.328 67.3791 154.561C68.4476 154.939 68.6489 154.882 69.3199 154.015C70.5461 152.431 73.0739 153.067 73.0739 154.959C73.0739 155.803 71.9055 156.936 71.0351 156.936C70.5859 156.936 70.3958 157.268 70.3958 158.054C70.3958 158.968 70.5917 159.211 71.4712 159.39C73.536 159.81 73.8501 162.499 71.9552 163.53C70.9911 164.054 68.9703 163.328 68.6638 162.347C68.3933 161.48 68.2411 161.457 66.6269 162.029C65.1903 162.538 65.1716 162.664 66.286 164.345C66.889 165.254 67.6836 165.816 68.9148 166.204C71.2604 166.945 73.1722 166.543 74.8839 164.948C76.0504 163.862 76.2551 163.417 76.2876 161.894C76.3144 160.64 76.0844 159.78 75.5102 158.99C74.7971 158.01 74.7607 157.776 75.2233 157.134C75.9437 156.132 75.8901 153.421 75.128 152.316C73.8972 150.53 70.9268 149.868 68.6558 150.873ZM252.698 150.906C250.557 151.669 248.453 154.171 247.95 156.552C246.599 162.957 252.029 168.134 257.952 166.088C259.587 165.524 259.874 165.521 260.898 166.06C262.42 166.859 262.64 166.821 263.157 165.666C263.79 164.256 263.721 163.961 262.666 163.554C261.742 163.197 261.738 163.176 262.371 161.911C263.196 160.263 263.183 156.387 262.347 154.758C261.05 152.232 257.919 150.303 255.185 150.346C254.659 150.354 253.54 150.606 252.698 150.906ZM491.431 150.906C487.259 152.393 485.251 157.902 487.322 162.185C488.731 165.099 490.826 166.401 494.11 166.405C497.795 166.408 500.416 164.441 501.425 160.913C502.399 157.508 501.607 154.575 499.113 152.349C496.931 150.403 494.255 149.9 491.431 150.906ZM506.735 150.908C505.035 151.832 504.266 153.042 504.256 154.808C504.245 156.901 505.012 157.894 507.704 159.275C509.615 160.256 510.752 161.321 510.752 162.132C510.752 162.237 510.481 162.599 510.151 162.935C509.324 163.775 507.368 163.698 505.865 162.767C505.176 162.34 504.542 161.99 504.456 161.99C504.37 161.99 503.937 162.508 503.494 163.141L502.687 164.292L504.211 165.317C505.379 166.102 506.252 166.353 507.956 166.392C511.975 166.485 513.813 164.982 513.813 161.603C513.813 159.642 512.751 158.442 509.869 157.147C507.324 156.003 506.724 155.325 507.296 154.239C507.775 153.328 509.861 153.133 511.22 153.872C511.892 154.238 512.13 154.16 512.716 153.386C513.621 152.19 513.605 152.016 512.522 151.295C511.129 150.367 508.102 150.165 506.735 150.908ZM531.22 150.906C527.047 152.393 525.04 157.902 527.111 162.185C528.52 165.099 530.615 166.401 533.898 166.405C537.584 166.408 540.205 164.441 541.214 160.913C542.188 157.508 541.396 154.575 538.902 152.349C536.72 150.403 534.044 149.9 531.22 150.906ZM53.562 158.491V166.267H55.0924H56.6227V163.351C56.6227 161.747 56.7738 160.435 56.959 160.435C57.1438 160.435 58.267 161.747 59.455 163.351L61.6147 166.267H63.5184C64.5656 166.267 65.4222 166.195 65.4222 166.107C65.4222 166.02 64.406 164.684 63.1641 163.14L60.9065 160.331L62.399 158.888C63.7407 157.592 63.8918 157.251 63.8918 155.527C63.8918 151.94 62.0933 150.715 56.8262 150.715H53.562V158.491ZM476.319 158.491V166.267H480.743H485.167L485.047 165.004L484.927 163.74L482.154 163.626L479.38 163.511V161.585V159.658H482.058H484.736V158.297V156.936H482.058H479.38V155.186V153.437H482.249H485.119V152.076V150.715H480.719H476.319V158.491ZM521.464 158.491V166.267H522.995H524.525V158.491V150.715H522.995H521.464V158.491ZM709.314 152.076V153.437H711.227H713.14V159.852V166.267H714.67H716.201V159.852V153.437H718.113H720.026V152.076V150.715H714.67H709.314V152.076ZM60.1616 154.277C60.53 154.718 60.8311 155.321 60.8311 155.618C60.8311 156.632 59.349 157.714 57.9617 157.714H56.6227V155.338V152.961L58.0574 153.219C58.8467 153.361 59.7932 153.837 60.1616 154.277ZM257.448 154.003C259.414 155.036 260.399 158.663 259.272 160.724L258.796 161.596L257.421 160.445C256.057 159.302 256.042 159.299 255.359 160.066C254.693 160.813 254.704 160.872 255.693 161.921C257.018 163.326 256.982 163.546 255.428 163.546C253.157 163.546 250.976 161.06 250.976 158.472C250.976 154.701 254.346 152.373 257.448 154.003ZM496.181 154.003C497.441 154.665 498.509 156.725 498.509 158.491C498.509 162.415 494.588 164.916 491.858 162.734C489.754 161.052 489.165 158.415 490.334 155.911C491.391 153.647 493.928 152.819 496.181 154.003ZM535.97 154.003C537.23 154.665 538.298 156.725 538.298 158.491C538.298 162.415 534.377 164.916 531.647 162.734C529.543 161.052 528.954 158.415 530.123 155.911C531.18 153.647 533.717 152.819 535.97 154.003ZM279.064 156.711C276.437 157.874 275.258 160.92 276.474 163.407C277.559 165.624 278.93 166.449 281.533 166.449C285.057 166.449 287.067 164.602 287.067 161.362C287.067 157.483 282.853 155.034 279.064 156.711ZM292.965 156.721C292.386 157.028 291.913 157.114 291.913 156.913C291.913 156.712 291.224 156.547 290.383 156.547H288.852V161.407V166.267H290.383H291.913V163.185C291.913 159.536 292.432 158.675 294.432 159.005C295.53 159.186 295.725 159.076 296.148 158.036C296.544 157.066 296.533 156.805 296.087 156.517C295.301 156.012 294.163 156.086 292.965 156.721ZM313.792 156.494C313.516 156.672 312.44 156.734 311.401 156.633L309.512 156.449V161.358V166.267H311.042H312.573L312.578 163.06C312.582 161.295 312.711 159.664 312.865 159.435C313.377 158.675 314.386 158.542 315.207 159.126C315.922 159.635 316.016 160.083 316.016 162.985V166.267H317.546H319.077V162.782C319.077 159.738 319.17 159.246 319.814 158.895C321.633 157.906 322.52 159.359 322.52 163.326V166.267H323.859H325.198V162.258C325.198 158.789 325.095 158.137 324.434 157.416C323.29 156.168 321.27 155.914 319.749 156.825C318.534 157.554 318.464 157.555 317.352 156.869C316.137 156.119 314.622 155.959 313.792 156.494ZM724.139 156.721C723.56 157.028 723.087 157.114 723.087 156.913C723.087 156.712 722.398 156.547 721.557 156.547H720.026V161.407V166.267H721.557H723.087V163.185C723.087 159.536 723.606 158.675 725.606 159.005C726.704 159.186 726.899 159.076 727.322 158.036C727.718 157.066 727.707 156.805 727.261 156.517C726.475 156.012 725.337 156.086 724.139 156.721ZM731.28 156.711C728.653 157.874 727.475 160.92 728.691 163.407C729.775 165.624 731.146 166.449 733.75 166.449C737.274 166.449 739.283 164.602 739.283 161.362C739.283 157.483 735.07 155.034 731.28 156.711ZM745.349 156.472C745.073 156.662 743.997 156.734 742.958 156.633L741.069 156.449V161.358V166.267H742.584H744.099L744.21 162.879C744.315 159.66 744.372 159.461 745.347 158.907C746.284 158.373 746.441 158.386 747.164 159.05C747.843 159.676 747.955 160.236 747.955 163.023V166.267H749.53H751.105L750.951 162.374C750.81 158.821 750.711 158.394 749.817 157.485C748.78 156.431 746.244 155.856 745.349 156.472ZM264.749 160.453C264.749 164.046 264.822 164.433 265.658 165.282C266.79 166.432 269.407 166.877 271.565 166.287C273.794 165.677 274.314 164.499 274.314 160.066V156.547H273.024H271.734L271.558 159.636C271.362 163.083 270.911 163.934 269.284 163.934C267.855 163.934 267.427 162.853 267.427 159.244V156.547H266.088H264.749V160.453ZM297.652 160.453C297.652 164.046 297.724 164.433 298.56 165.282C299.692 166.432 302.309 166.877 304.467 166.287C306.696 165.677 307.216 164.499 307.216 160.066V156.547H305.926H304.637L304.461 159.636C304.264 163.083 303.814 163.934 302.187 163.934C300.758 163.934 300.33 162.853 300.33 159.244V156.547H298.991H297.652V160.453ZM283.293 159.645C284.795 161.331 283.593 164.076 281.449 163.856C280.034 163.711 278.714 162.048 279.081 160.873C279.708 158.865 282.003 158.195 283.293 159.645ZM735.51 159.645C737.011 161.331 735.809 164.076 733.666 163.856C732.251 163.711 730.93 162.048 731.297 160.873C731.925 158.865 734.219 158.195 735.51 159.645ZM516.185 163.235C515.423 164.009 515.63 165.799 516.539 166.294C517.787 166.972 519.169 166.186 519.169 164.798C519.169 163.495 518.552 162.768 517.447 162.768C517.005 162.768 516.437 162.978 516.185 163.235ZM730.646 280.998L730.548 305.262L710.928 314.364C700.137 319.369 691.358 323.616 691.419 323.8C691.479 323.984 700.36 329.456 711.153 335.961L730.779 347.788L750.557 335.884C761.436 329.337 770.375 323.958 770.423 323.93C770.507 323.881 731.194 257.208 730.896 256.893C730.813 256.806 730.7 267.653 730.646 280.998ZM252.763 262.249L248.321 264.828L248.309 270.283L248.298 275.739L252.716 278.372L257.134 281.006L261.704 278.36L266.274 275.715L266.181 270.331L266.088 264.947L261.647 262.309L257.206 259.67L252.763 262.249ZM503.544 264.736L474.721 267.49L473.782 266.271C472.604 264.741 470.767 264.315 469.108 265.187C467.009 266.29 466.481 268.736 467.937 270.617L468.737 271.651L456.24 299.306L443.743 326.962L444.468 327.971C444.866 328.526 452.636 339.71 461.733 352.823C478.209 376.573 478.271 376.671 477.853 377.959C477.29 379.694 477.69 381.069 479.114 382.286C481.079 383.967 483.277 383.168 485.31 380.035C485.671 379.478 493.963 378.637 543.187 374.161C543.952 374.091 545.588 370.699 556.541 346.455L569.023 318.828L570.388 318.789C572.016 318.742 573.879 316.905 573.879 315.347C573.879 312.937 571.744 311.096 569.278 311.38C568.476 311.472 566.341 308.566 551.22 286.796C537.786 267.455 533.887 262.093 533.22 262.045C532.751 262.01 519.397 263.222 503.544 264.736ZM530.264 263.624C530.264 263.711 524.444 267.033 517.329 271.008L504.395 278.235L489.534 273.773C481.36 271.319 474.588 269.225 474.484 269.12C474.381 269.015 474.537 268.845 474.83 268.744C475.332 268.569 526.959 263.6 529.212 263.51C529.791 263.487 530.264 263.538 530.264 263.624ZM536.917 279.646C538.881 288.39 540.436 295.606 540.372 295.683C540.308 295.759 536.561 293.49 532.046 290.641L523.835 285.459L524.038 284.19C524.402 281.908 523.412 280.441 520.965 279.642C520.081 279.353 517.697 280.355 517.401 281.141C517.276 281.471 516.937 281.741 516.646 281.741C515.577 281.741 506.529 278.87 506.63 278.562C506.747 278.206 533.045 263.443 533.229 263.63C533.294 263.695 534.953 270.903 536.917 279.646ZM551.667 289.471C560.323 301.955 567.354 312.325 567.291 312.516C567.229 312.707 561.497 309.272 554.555 304.883L541.933 296.904L539.956 288.059C538.869 283.194 537.299 276.181 536.466 272.473C535.568 268.472 535.151 265.944 535.441 266.253C535.709 266.538 543.011 276.987 551.667 289.471ZM239.881 268.643L237.777 269.928L237.665 272.492L237.552 275.055L239.624 276.26C240.764 276.922 241.933 277.461 242.223 277.457C242.513 277.453 243.569 276.928 244.568 276.29L246.385 275.13V272.471V269.812L244.38 268.681C243.278 268.059 242.288 267.507 242.181 267.454C242.074 267.402 241.039 267.937 239.881 268.643ZM503.166 278.57C503.357 278.76 485.242 289.179 483.603 289.821C483.449 289.882 481.045 285.805 478.26 280.761C473.425 272.004 473.223 271.551 473.776 270.693L474.355 269.795L488.632 274.055C496.485 276.398 503.025 278.43 503.166 278.57ZM470.562 287.11L470.545 301.765L458.607 312.894C452.041 319.014 446.614 323.974 446.546 323.914C446.478 323.855 451.195 313.248 457.028 300.344C462.861 287.44 468.122 275.776 468.72 274.426C469.322 273.064 469.979 272.078 470.193 272.213C470.444 272.37 470.574 277.624 470.562 287.11ZM477.325 281.374L482.413 290.489L479.654 293.149C478.135 294.613 475.559 297.037 473.928 298.537L470.963 301.264V286.902C470.963 279.003 471.081 272.419 471.226 272.272C471.371 272.125 471.657 272.062 471.863 272.132C472.068 272.201 474.526 276.36 477.325 281.374ZM236.725 277.107C235.751 277.683 235.878 279.201 236.941 279.693C238.168 280.261 239.116 279.639 239.116 278.264C239.116 276.821 238.066 276.313 236.725 277.107ZM251.08 286.718L234.159 296.71L234.247 317.06L234.334 337.409L251.303 347.433L268.272 357.457L277.128 352.22C281.998 349.339 289.729 344.773 294.308 342.072L302.632 337.161L302.533 316.987L302.434 296.813L285.409 286.753C276.045 281.219 268.298 276.7 268.193 276.71C268.087 276.719 260.387 281.223 251.08 286.718ZM507.747 279.763C509.084 280.172 511.662 280.958 513.475 281.51L516.772 282.512L516.992 284.168C517.189 285.642 517.079 285.973 515.991 287.184L514.769 288.545L516.138 287.27C517.462 286.037 517.544 286.014 518.625 286.587C519.24 286.913 520.032 287.181 520.384 287.182C520.737 287.183 521.104 287.491 521.201 287.865C521.34 288.405 521.385 288.375 521.42 287.717C521.448 287.195 521.872 286.718 522.57 286.425C523.626 285.98 524.053 286.2 532.23 291.402L540.785 296.845L542.438 304.299C543.348 308.399 544 311.847 543.887 311.96C543.683 312.169 485.536 291.19 485.052 290.733C484.876 290.567 504.15 279.412 505.26 279.038C505.29 279.028 506.409 279.354 507.747 279.763ZM311.329 284.949L307.982 286.959V291.117V295.275L311.638 297.451L315.294 299.626L318.907 297.465L322.52 295.304V291.098V286.892L319.123 284.9C317.255 283.804 315.49 282.915 315.201 282.924C314.913 282.933 313.171 283.844 311.329 284.949ZM300.425 287.016L298.799 288.006L298.805 290.414L298.811 292.822L300.715 293.889L302.62 294.957L304.535 293.759L306.451 292.561V290.295V288.029L304.681 287.023C302.511 285.79 302.438 285.79 300.425 287.016ZM513.215 289.614L512.091 290.878L513.334 289.736C514.493 288.672 514.754 288.351 514.458 288.351C514.392 288.351 513.833 288.919 513.215 289.614ZM521.495 289.744C521.513 290.197 521.604 290.289 521.726 289.979C521.836 289.698 521.823 289.363 521.695 289.234C521.568 289.105 521.478 289.334 521.495 289.744ZM510.537 291.947L509.413 293.211L510.656 292.069C511.815 291.004 512.076 290.684 511.78 290.684C511.714 290.684 511.154 291.252 510.537 291.947ZM521.877 291.688C521.896 292.141 521.986 292.233 522.108 291.923C522.219 291.642 522.205 291.307 522.078 291.178C521.951 291.049 521.861 291.278 521.877 291.688ZM483.38 294.987C485.995 308.273 490.584 332.319 490.684 333.257C490.753 333.899 490.835 334.424 490.868 334.424C490.901 334.424 491.828 339.017 492.928 344.63C494.029 350.243 494.827 354.836 494.703 354.836C494.297 354.836 474.604 343.484 474.378 343.119C474.258 342.925 473.676 340.093 473.086 336.827L472.013 330.889L473.21 329.673C474.153 328.715 474.406 328.126 474.406 326.895C474.406 326.036 474.223 325.218 473.999 325.077C473.733 324.91 473.833 324.533 474.286 323.992C474.9 323.258 474.903 323.223 474.313 323.687C473.748 324.131 473.441 324.113 472.305 323.565L470.963 322.918V312.906V302.896L476.798 297.426C480.007 294.417 482.672 291.987 482.721 292.026C482.771 292.065 483.067 293.398 483.38 294.987ZM492.967 294.954C497.645 296.661 501.764 298.171 502.119 298.309C502.683 298.529 502.629 298.715 501.689 299.774L500.613 300.987L501.782 299.918C502.425 299.329 503.111 298.849 503.307 298.849C503.931 298.849 543.656 313.39 543.628 313.609C543.576 314.024 529.237 326.256 528.941 326.137C528.774 326.07 528.444 326.377 528.207 326.818C527.657 327.847 512.249 341.224 511.613 341.226C511.35 341.227 511.178 341.374 511.23 341.552C511.38 342.06 496.534 354.931 496.212 354.572C496.055 354.397 495.113 349.972 494.121 344.739C492.86 338.092 492.448 335.181 492.755 335.077C493.048 334.978 493.003 334.78 492.619 334.482C492.239 334.186 491.337 330.346 489.958 323.149C487.999 312.928 487.91 312.215 488.504 311.491C489.093 310.773 489.092 310.755 488.499 311.22C487.691 311.854 487.827 312.334 485.874 301.959C485.008 297.361 484.207 293.206 484.094 292.725C483.981 292.244 484.017 291.85 484.174 291.85C484.332 291.85 488.288 293.247 492.967 294.954ZM507.476 294.669L506.352 295.932L507.596 294.791C508.755 293.726 509.015 293.405 508.719 293.405C508.654 293.405 508.094 293.974 507.476 294.669ZM522.26 294.021C522.278 294.474 522.369 294.566 522.491 294.256C522.601 293.975 522.588 293.64 522.461 293.511C522.334 293.382 522.243 293.611 522.26 294.021ZM522.642 295.965C522.661 296.418 522.751 296.51 522.873 296.2C522.984 295.919 522.97 295.584 522.843 295.455C522.716 295.326 522.626 295.555 522.642 295.965ZM504.984 296.807L504.057 297.876L505.109 296.934C506.092 296.053 506.337 295.738 506.036 295.738C505.968 295.738 505.494 296.219 504.984 296.807ZM523.025 297.909C523.043 298.362 523.134 298.454 523.256 298.144C523.367 297.863 523.353 297.528 523.226 297.399C523.099 297.27 523.008 297.499 523.025 297.909ZM555.6 306.131C566.674 313.093 568.123 314.315 565.07 314.122C555.533 313.519 545.713 312.709 545.538 312.512C545.417 312.375 544.672 309.288 543.884 305.653C543.095 302.017 542.355 298.706 542.24 298.294C542.04 297.583 542.094 297.587 543.32 298.384C544.03 298.845 549.556 302.332 555.6 306.131ZM523.438 300.015C523.438 300.549 523.525 300.768 523.631 300.501C523.737 300.234 523.737 299.796 523.631 299.529C523.525 299.262 523.438 299.48 523.438 300.015ZM499.059 302.056L497.935 303.32L499.179 302.178C500.338 301.113 500.598 300.793 500.302 300.793C500.237 300.793 499.677 301.361 499.059 302.056ZM523.79 302.186C523.808 302.639 523.899 302.731 524.021 302.421C524.132 302.14 524.118 301.805 523.991 301.675C523.864 301.546 523.774 301.776 523.79 302.186ZM470.58 313.429C470.58 322.197 470.511 323.343 469.977 323.343C469.645 323.343 468.871 323.854 468.255 324.479C467.428 325.321 467.137 325.985 467.137 327.037C467.137 328.759 468.843 330.73 470.334 330.73C470.918 330.73 471.372 330.997 471.493 331.411C471.871 332.704 473.634 342.531 473.511 342.657C473.319 342.851 445.748 327.074 445.729 326.759C445.713 326.491 470.131 303.514 470.432 303.514C470.514 303.514 470.58 307.976 470.58 313.429ZM495.998 304.778L494.875 306.041L496.118 304.899C497.277 303.835 497.537 303.514 497.242 303.514C497.176 303.514 496.616 304.083 495.998 304.778ZM524.173 304.13C524.191 304.583 524.282 304.675 524.404 304.365C524.514 304.084 524.501 303.749 524.374 303.619C524.247 303.49 524.156 303.72 524.173 304.13ZM493.32 307.111L492.197 308.374L493.44 307.232C494.599 306.168 494.859 305.847 494.564 305.847C494.498 305.847 493.938 306.415 493.32 307.111ZM19.3206 320.263C9.43074 327.586 1.26674 333.638 1.17836 333.711C0.860053 333.973 2.38045 340.235 3.6996 344.091C5.62975 349.735 9.62586 357.48 12.8369 361.804C18.5347 369.473 27.8411 377.523 35.5384 381.44C46.3346 386.933 58.6133 389.366 70.3705 388.343C89.6402 386.666 106.037 377.268 117.711 361.209C123.994 352.565 128.053 342.123 129.505 330.862C130.066 326.514 130.29 319.455 129.866 319.455C129.749 319.455 121.27 325.674 111.024 333.275L92.3945 347.094L92.2954 327.054C92.241 316.032 92.1091 307.013 92.0023 307.013C91.8956 307.013 79.6655 316.024 64.8242 327.037C49.9829 338.049 37.7635 347.06 37.6702 347.06C37.5768 347.06 37.4555 338.035 37.4012 327.004L37.3021 306.947L19.3206 320.263ZM524.938 308.406C524.956 308.859 525.047 308.952 525.169 308.642C525.28 308.361 525.266 308.025 525.139 307.896C525.012 307.767 524.921 307.997 524.938 308.406ZM490.454 309.638L489.136 311.096L490.571 309.756C491.906 308.509 492.181 308.18 491.889 308.18C491.825 308.18 491.18 308.836 490.454 309.638ZM342.705 310.238C341.356 311.046 341.274 311.208 341.27 313.041C341.267 314.943 341.302 315.005 342.95 315.893L344.634 316.801L346.2 315.892C347.707 315.017 347.765 314.911 347.767 313.014C347.77 311.13 347.706 311.008 346.284 310.195C344.484 309.168 344.491 309.168 342.705 310.238ZM525.32 310.35C525.339 310.803 525.43 310.896 525.552 310.586C525.662 310.305 525.648 309.969 525.521 309.84C525.394 309.711 525.304 309.941 525.32 310.35ZM349.76 310.979C348.603 312.154 349.691 314.309 351.195 313.823C351.778 313.635 351.979 313.239 351.979 312.278C351.979 310.667 350.765 309.957 349.76 310.979ZM525.703 312.294C525.721 312.747 525.812 312.84 525.934 312.53C526.045 312.249 526.031 311.913 525.904 311.784C525.777 311.655 525.687 311.885 525.703 312.294ZM484.903 314.498L483.78 315.761L485.023 314.619C485.707 313.992 486.267 313.423 486.267 313.356C486.267 313.055 485.951 313.32 484.903 314.498ZM526.116 314.401C526.116 314.935 526.203 315.154 526.309 314.887C526.415 314.619 526.415 314.182 526.309 313.915C526.203 313.647 526.116 313.866 526.116 314.401ZM555.706 314.608C566.668 315.393 566.481 315.359 566.711 316.582C566.879 317.474 565.784 318.585 556.137 327.313L545.376 337.049L545.252 333.015C545.183 330.796 545.245 325.612 545.389 321.496C545.645 314.191 545.671 314.012 546.47 314.008C546.921 314.006 551.077 314.276 555.706 314.608ZM334.488 316.463L331.727 318.094L331.719 321.593L331.711 325.093L334.083 326.453C335.388 327.202 336.749 327.966 337.108 328.151C337.579 328.394 338.563 328.023 340.661 326.81L343.562 325.132V321.593V318.055L340.739 316.422C339.186 315.524 337.765 314.799 337.582 314.811C337.399 314.823 336.007 315.566 334.488 316.463ZM544.184 326.356C544.047 332.718 543.829 338.114 543.699 338.346C543.482 338.735 535.709 345.899 535.514 345.889C535.467 345.887 534.625 345.637 533.643 345.334L531.857 344.783L530.406 346.058C529.093 347.212 528.964 347.495 529.048 349.043L529.14 350.753L520.842 355.613C516.278 358.286 512.234 360.628 511.855 360.817C511.362 361.063 509.214 360.461 504.264 358.687C500.468 357.326 497.361 356.094 497.361 355.947C497.361 355.801 500.873 352.603 505.164 348.84C511.026 343.7 513.144 342.057 513.677 342.233C514.203 342.407 514.253 342.371 513.87 342.092C513.478 341.808 515.197 340.101 520.936 335.075C525.607 330.984 528.62 328.6 528.783 328.867C528.942 329.13 529.098 328.989 529.177 328.511C529.252 328.056 532.462 324.976 536.737 321.255C540.823 317.699 544.226 314.789 544.3 314.789C544.373 314.789 544.321 319.995 544.184 326.356ZM481.843 317.219L480.719 318.483L481.962 317.341C483.121 316.277 483.382 315.956 483.086 315.956C483.02 315.956 482.461 316.524 481.843 317.219ZM526.468 316.571C526.487 317.024 526.577 317.116 526.699 316.806C526.81 316.526 526.796 316.19 526.669 316.061C526.542 315.932 526.452 316.161 526.468 316.571ZM526.851 318.515C526.869 318.968 526.96 319.06 527.082 318.75C527.192 318.47 527.179 318.134 527.052 318.005C526.925 317.876 526.834 318.105 526.851 318.515ZM567.757 318.377C567.757 318.808 545.568 368.227 544.753 369.61C544.371 370.26 544.733 341.048 545.132 339.013C545.332 337.997 547.359 335.97 556.28 327.864C562.277 322.414 567.313 317.943 567.47 317.928C567.628 317.912 567.757 318.114 567.757 318.377ZM479.165 319.552L478.041 320.816L479.284 319.674C480.443 318.609 480.704 318.289 480.408 318.289C480.342 318.289 479.782 318.857 479.165 319.552ZM527.233 320.459C527.252 320.912 527.342 321.004 527.464 320.694C527.575 320.414 527.561 320.078 527.434 319.949C527.307 319.82 527.217 320.049 527.233 320.459ZM476.104 322.274L474.98 323.537L476.224 322.395C477.382 321.331 477.643 321.01 477.347 321.01C477.281 321.01 476.722 321.579 476.104 322.274ZM527.616 322.792C527.634 323.245 527.725 323.337 527.847 323.027C527.958 322.747 527.944 322.411 527.817 322.282C527.69 322.153 527.6 322.382 527.616 322.792ZM527.999 324.736C528.017 325.189 528.108 325.281 528.23 324.971C528.34 324.691 528.326 324.355 528.199 324.226C528.072 324.097 527.982 324.326 527.999 324.736ZM322.137 332.842L313.529 337.986V348.797V359.608L322.304 364.79L331.079 369.973L332.251 369.258C332.896 368.865 336.91 366.489 341.171 363.98L348.918 359.417V348.797V338.176L339.984 332.898C335.07 329.995 330.981 327.637 330.898 327.659C330.814 327.68 326.872 330.013 322.137 332.842ZM460.251 336.572C467.51 340.7 473.578 344.187 473.735 344.322C474.026 344.573 479.763 374.42 479.763 375.687C479.763 376.299 479.695 376.316 479.222 375.817C478.924 375.504 472.189 365.888 464.254 354.447C456.32 343.007 449.046 332.525 448.089 331.154C447.133 329.782 446.509 328.752 446.701 328.864C446.894 328.975 452.991 332.444 460.251 336.572ZM529.146 330.957C529.165 331.41 529.255 331.502 529.377 331.192C529.488 330.911 529.474 330.576 529.347 330.447C529.22 330.318 529.13 330.547 529.146 330.957ZM750.335 343.658L730.758 355.419L730.749 371.924C730.743 381.001 730.883 388.262 731.06 388.059C731.237 387.856 739.525 375.967 749.478 361.64C759.432 347.313 768.168 334.759 768.893 333.743C769.618 332.728 770.143 331.897 770.061 331.897C769.979 331.897 761.102 337.189 750.335 343.658ZM529.529 332.901C529.547 333.354 529.638 333.446 529.76 333.136C529.871 332.855 529.857 332.52 529.73 332.391C529.603 332.262 529.512 332.491 529.529 332.901ZM529.911 334.845C529.93 335.298 530.021 335.39 530.143 335.08C530.253 334.799 530.239 334.464 530.112 334.335C529.985 334.206 529.895 334.435 529.911 334.845ZM530.294 337.178C530.312 337.631 530.403 337.723 530.525 337.413C530.636 337.132 530.622 336.797 530.495 336.668C530.368 336.539 530.278 336.768 530.294 337.178ZM530.677 339.122C530.695 339.575 530.786 339.667 530.908 339.357C531.018 339.076 531.005 338.741 530.878 338.612C530.751 338.483 530.66 338.712 530.677 339.122ZM543.608 350.365C543.468 356.352 543.335 363.744 543.313 366.792C543.282 370.94 543.152 372.333 542.794 372.336C542.123 372.342 512.296 361.685 512.288 361.437C512.285 361.325 516.098 358.986 520.762 356.239C529.195 351.271 529.246 351.247 530.289 351.873C533.071 353.543 536.637 351.661 536.298 348.702C536.207 347.906 536.06 347.072 535.972 346.849C535.832 346.496 543.625 339.033 543.797 339.355C543.833 339.423 543.748 344.377 543.608 350.365ZM227.921 343.29L221.9 346.858V353.865V360.872L227.901 364.402L233.903 367.931L239.666 364.533L245.429 361.134V353.865V346.596L240.838 343.876C238.313 342.38 235.728 340.833 235.094 340.439L233.941 339.723L227.921 343.29ZM531.059 341.066C531.078 341.519 531.168 341.611 531.29 341.301C531.401 341.02 531.387 340.685 531.26 340.556C531.133 340.427 531.043 340.656 531.059 341.066ZM531.442 343.01C531.46 343.463 531.551 343.555 531.673 343.245C531.784 342.964 531.77 342.629 531.643 342.5C531.516 342.371 531.425 342.6 531.442 343.01ZM485.083 350.785L494.986 356.454L488.971 366.045C483.199 375.248 482.906 375.637 481.741 375.65C480.973 375.658 480.463 375.444 480.352 375.067C480.118 374.268 474.789 345.914 474.789 345.467C474.789 345.274 474.877 345.116 474.984 345.116C475.092 345.116 479.636 347.667 485.083 350.785ZM279.607 354.221L272.21 358.583V367.682V376.781L279.597 381.166L286.984 385.551L294.614 381.038L302.243 376.524V367.661V358.798L300.234 357.642C299.129 357.006 295.701 354.995 292.615 353.172L287.004 349.858L279.607 354.221ZM502.895 359.428C506.402 360.671 509.249 361.852 509.221 362.052C509.179 362.358 485.909 376.292 484.449 376.886C484.186 376.993 483.971 376.879 483.971 376.633C483.971 376.015 495.816 357.169 496.205 357.169C496.378 357.169 499.388 358.185 502.895 359.428ZM308.086 364.269L304.556 366.306L304.553 370.971L304.549 375.637L308.148 377.732C310.127 378.884 311.837 379.847 311.948 379.87C312.059 379.894 313.793 378.951 315.801 377.775L319.453 375.637L319.456 370.971L319.459 366.306L315.889 364.264C313.925 363.141 312.161 362.225 311.967 362.227C311.774 362.23 310.028 363.148 308.086 364.269ZM525.956 367.699C539.462 372.514 540.476 372.938 539.155 373.209C538.104 373.426 496.985 377.339 486.075 378.261C485.317 378.325 484.927 378.18 484.927 377.831C484.927 377.251 510.326 362.139 510.943 362.351C511.154 362.424 517.909 364.83 525.956 367.699ZM266.758 373.195C266.096 373.519 265.897 373.949 265.897 375.047C265.897 376.939 267.162 377.753 268.939 377.006C269.944 376.583 270.106 376.314 270.106 375.069C270.106 373.897 269.921 373.538 269.131 373.172C267.986 372.642 267.885 372.643 266.758 373.195ZM64.2744 414.711V422.876H65.8047H67.3351V414.711V406.546H65.8047H64.2744V414.711ZM88.2499 406.806C88.1095 406.948 87.9947 408.597 87.9947 410.469V413.874L86.8137 413.275C85.4796 412.599 83.4473 412.783 82.062 413.705C81.5788 414.027 80.8828 415.09 80.5152 416.069C79.9455 417.585 79.916 418.081 80.3151 419.436C81.2126 422.48 83.8846 423.883 86.5937 422.733C87.3642 422.406 87.9947 422.304 87.9947 422.507C87.9947 422.71 88.6834 422.876 89.5251 422.876H91.0554V414.711V406.546H89.7803C89.0786 406.546 88.3899 406.663 88.2499 406.806ZM262.836 414.711V422.876H264.367H265.897V414.711V406.546H264.367H262.836V414.711ZM287.195 406.806C287.054 406.948 286.939 408.597 286.939 410.469V413.874L285.758 413.275C284.424 412.599 282.392 412.783 281.007 413.705C280.523 414.027 279.827 415.09 279.46 416.069C278.89 417.585 278.861 418.081 279.26 419.436C280.157 422.48 282.829 423.883 285.538 422.733C286.309 422.406 286.939 422.304 286.939 422.507C286.939 422.71 287.628 422.876 288.47 422.876H290V414.711V406.546H288.725C288.023 406.546 287.335 406.663 287.195 406.806ZM354.53 406.806C354.389 406.948 354.274 408.597 354.274 410.469V413.874L353.093 413.275C351.759 412.599 349.727 412.783 348.342 413.705C347.858 414.027 347.163 415.09 346.795 416.069C346.225 417.585 346.196 418.081 346.595 419.436C347.492 422.48 350.164 423.883 352.873 422.733C353.644 422.406 354.274 422.304 354.274 422.507C354.274 422.71 354.963 422.876 355.805 422.876H357.335V414.711V406.546H356.06C355.358 406.546 354.67 406.663 354.53 406.806ZM476.319 414.711V422.876H477.85H479.38V414.711V406.546H477.85H476.319V414.711ZM500.295 406.806C500.154 406.948 500.04 408.597 500.04 410.469V413.874L498.859 413.275C497.524 412.599 495.492 412.783 494.107 413.705C493.624 414.027 492.928 415.09 492.56 416.069C491.99 417.585 491.961 418.081 492.36 419.436C493.258 422.48 495.929 423.883 498.639 422.733C499.409 422.406 500.04 422.304 500.04 422.507C500.04 422.71 500.728 422.876 501.57 422.876H503.1V414.711V406.546H501.825C501.123 406.546 500.435 406.663 500.295 406.806ZM565.079 414.688V422.876H566.609C567.451 422.876 568.14 422.704 568.14 422.493C568.14 422.283 568.723 422.394 569.436 422.739C571.289 423.637 573.147 423.188 574.615 421.49C576.748 419.021 576.028 414.69 573.264 413.357C571.742 412.623 570.545 412.613 569.206 413.322L568.168 413.873L568.058 410.307L567.949 406.741L566.514 406.62L565.079 406.499V414.688ZM703.958 414.711V422.876H705.473H706.989L707.099 419.488C707.204 416.269 707.261 416.07 708.236 415.515C709.173 414.982 709.33 414.995 710.053 415.659C710.733 416.284 710.844 416.845 710.844 419.632V422.876H712.419H713.994L713.84 418.983C713.697 415.37 713.612 415.014 712.649 414.036C711.846 413.219 711.246 412.983 709.985 412.985C709.09 412.986 708.056 413.132 707.688 413.308C707.076 413.6 707.018 413.322 707.018 410.087V406.546H705.488H703.958V414.711ZM6.50396 415.1V422.876H8.0343H9.56464V419.571V416.266H12.434H15.3034V419.571V422.876H16.8338H18.3641V415.1V407.324H16.8338H15.3034V410.434V413.545H12.434H9.56464V410.434V407.324H8.0343H6.50396V415.1ZM205.449 415.1V422.876H206.979H208.509V419.571V416.266H211.379H214.248V419.571V422.876H215.778H217.309V415.1V407.324H215.778H214.248V410.434V413.545H211.379H208.509V410.434V407.324H206.979H205.449V415.1ZM329.406 415.1V422.876H330.937H332.467V415.1V407.324H330.937H329.406V415.1ZM418.549 415.1V422.876H420.079H421.609V419.571V416.266H424.479H427.348V419.571V422.876H428.879H430.409V415.1V407.324H428.879H427.348V410.434V413.545H424.479H421.609V410.434V407.324H420.079H418.549V415.1ZM542.507 415.1V422.876H544.037H545.567V419.571V416.266H548.269H550.972L550.852 415.003L550.732 413.739L548.15 413.624L545.567 413.509V411.777V410.046H548.437H551.306V408.685V407.324H546.906H542.507V415.1ZM686.359 415.1V422.876H690.783H695.207L695.087 421.612L694.967 420.349L692.193 420.235L689.42 420.12V418.193V416.266H692.098H694.776V414.906V413.545H692.098H689.42V411.795V410.046H692.289H695.158V408.685V407.324H690.759H686.359V415.1ZM586.915 408.462C586.443 408.941 586.256 409.511 586.394 410.05C586.656 411.068 587.338 411.377 588.609 411.052C589.358 410.861 589.565 410.56 589.565 409.663C589.565 408.929 589.299 408.373 588.825 408.115C587.841 407.58 587.77 407.593 586.915 408.462ZM697.454 411.406C697.454 412.702 697.305 413.156 696.88 413.156C696.497 413.156 696.306 413.545 696.306 414.322C696.306 415.1 696.497 415.489 696.88 415.489C697.325 415.489 697.454 416.001 697.454 417.764C697.454 420.891 698.013 422.338 699.413 422.834C700.72 423.298 702.823 422.99 702.783 422.341C702.717 421.262 702.1 420.352 701.433 420.351C700.808 420.349 700.69 420.006 700.592 417.919C700.48 415.544 700.5 415.489 701.453 415.489C702.281 415.489 702.427 415.313 702.427 414.322C702.427 413.338 702.279 413.156 701.471 413.156C700.593 413.156 700.515 413.013 700.515 411.406V409.657H698.984H697.454V411.406ZM35.8739 413.326C35.2668 413.648 34.7357 413.729 34.6079 413.518C34.4867 413.319 33.7953 413.156 33.0711 413.156H31.7546V420.349V427.542H33.285H34.8153V424.826V422.111L36.1119 422.739C37.964 423.637 39.8226 423.188 41.2902 421.49C43.4231 419.021 42.7038 414.69 39.9393 413.357C38.4147 412.621 37.2202 412.613 35.8739 413.326ZM46.32 413.448C44.4178 414.434 43.4235 416.002 43.4235 418.016C43.4235 422.543 49.0762 424.854 52.5145 421.732L53.7139 420.643L52.5504 420.032C51.5144 419.487 51.3246 419.485 50.8112 420.006C49.8723 420.96 47.816 420.813 46.9509 419.73L46.2041 418.794L49.8831 418.682L53.562 418.571V417.277C53.562 415.687 52.3404 414.025 50.6406 413.303C48.9664 412.592 47.9028 412.628 46.32 413.448ZM59.5877 413.33C59.0093 413.637 58.5356 413.723 58.5356 413.522C58.5356 413.321 57.847 413.156 57.0053 413.156H55.4749V418.016V422.876H57.0053H58.5356V419.793C58.5356 416.145 59.0548 415.284 61.055 415.613C62.153 415.794 62.3473 415.685 62.7708 414.645C63.1664 413.675 63.1557 413.413 62.7096 413.126C61.9234 412.62 60.786 412.695 59.5877 413.33ZM71.5707 413.448C69.6685 414.434 68.6741 416.002 68.6741 418.016C68.6741 422.543 74.3268 424.854 77.7651 421.732L78.9646 420.643L77.8011 420.032C76.7651 419.487 76.5753 419.485 76.0619 420.006C75.123 420.96 73.0666 420.813 72.2016 419.73L71.4548 418.794L75.1337 418.682L78.8127 418.571V417.277C78.8127 415.687 77.5911 414.025 75.8913 413.303C74.217 412.592 73.1535 412.628 71.5707 413.448ZM95.2707 413.448C93.3364 414.435 92.2686 417.156 92.9324 419.408C93.838 422.479 96.5 423.888 99.219 422.733C100.595 422.149 100.62 422.154 100.62 423.03C100.62 424.959 97.5135 425.991 95.9732 424.574C95.3863 424.034 95.1108 424.013 94.126 424.427C92.7617 425.001 92.6998 425.325 93.7488 426.391C94.8327 427.492 96.1423 427.931 98.3494 427.931H100.237V435.901V443.871H101.753H103.268L103.379 440.483C103.484 437.264 103.541 437.065 104.516 436.511C105.452 435.978 105.61 435.99 106.333 436.654C107.012 437.28 107.124 437.84 107.124 440.627V443.871H108.699H110.274L110.12 439.978C109.977 436.365 109.891 436.009 108.929 435.031C108.125 434.215 107.526 433.978 106.265 433.98C105.369 433.981 104.336 434.127 103.968 434.303C103.356 434.596 103.298 434.318 103.298 431.083V427.542H102.27H101.242L102.366 426.35L103.489 425.159L103.62 419.158L103.749 413.156H102.185C101.324 413.156 100.62 413.321 100.62 413.522C100.62 413.723 100.146 413.637 99.5679 413.33C98.1696 412.588 96.8864 412.624 95.2707 413.448ZM107.916 413.448C106.014 414.434 105.02 416.002 105.02 418.016C105.02 422.543 110.672 424.854 114.111 421.732L115.31 420.643L114.147 420.032C113.111 419.487 112.921 419.485 112.408 420.006C111.469 420.96 109.412 420.813 108.547 419.73L107.8 418.794L111.479 418.682L115.158 418.571V417.277C115.158 415.687 113.937 414.025 112.237 413.303C110.563 412.592 109.499 412.628 107.916 413.448ZM121.184 413.33C120.606 413.637 120.132 413.723 120.132 413.522C120.132 413.321 119.443 413.156 118.602 413.156H117.071V418.016V422.876H118.602H120.132V419.793C120.132 416.145 120.651 415.284 122.651 415.613C123.749 415.794 123.944 415.685 124.367 414.645C124.763 413.675 124.752 413.413 124.306 413.126C123.52 412.62 122.382 412.695 121.184 413.33ZM234.819 413.326C234.211 413.648 233.68 413.729 233.553 413.518C233.431 413.319 232.74 413.156 232.016 413.156H230.699V420.349V427.542H232.23H233.76V424.826V422.111L235.056 422.739C236.909 423.637 238.767 423.188 240.235 421.49C242.368 419.021 241.648 414.69 238.884 413.357C237.359 412.621 236.165 412.613 234.819 413.326ZM245.265 413.448C243.362 414.434 242.368 416.002 242.368 418.016C242.368 422.543 248.021 424.854 251.459 421.732L252.658 420.643L251.495 420.032C250.459 419.487 250.269 419.485 249.756 420.006C248.817 420.96 246.761 420.813 245.896 419.73L245.149 418.794L248.828 418.682L252.507 418.571V417.277C252.507 415.687 251.285 414.025 249.585 413.303C247.911 412.592 246.847 412.628 245.265 413.448ZM258.532 413.33C257.953 413.637 257.48 413.723 257.48 413.522C257.48 413.321 256.792 413.156 255.95 413.156H254.42V418.016V422.876H255.95H257.48V419.793C257.48 416.145 257.999 415.284 260 415.613C261.098 415.794 261.292 415.685 261.715 414.645C262.111 413.675 262.1 413.413 261.654 413.126C260.868 412.62 259.731 412.695 258.532 413.33ZM270.515 413.448C268.613 414.434 267.619 416.002 267.619 418.016C267.619 422.543 273.271 424.854 276.71 421.732L277.909 420.643L276.746 420.032C275.71 419.487 275.52 419.485 275.006 420.006C274.068 420.96 272.011 420.813 271.146 419.73L270.399 418.794L274.078 418.682L277.757 418.571V417.277C277.757 415.687 276.536 414.025 274.836 413.303C273.162 412.592 272.098 412.628 270.515 413.448ZM294.215 413.448C292.281 414.435 291.213 417.156 291.877 419.408C292.783 422.479 295.445 423.888 298.164 422.733C299.539 422.149 299.565 422.154 299.565 423.03C299.565 424.959 296.458 425.991 294.918 424.574C294.331 424.034 294.055 424.013 293.071 424.427C291.654 425.023 291.629 425.367 292.916 426.579C294.943 428.489 299.278 428.401 301.237 426.411L302.434 425.195L302.564 419.176L302.694 413.156H301.129C300.269 413.156 299.565 413.321 299.565 413.522C299.565 413.723 299.091 413.637 298.513 413.33C297.114 412.588 295.831 412.624 294.215 413.448ZM306.861 413.448C304.959 414.434 303.964 416.002 303.964 418.016C303.964 422.543 309.617 424.854 313.055 421.732L314.255 420.643L313.091 420.032C312.055 419.487 311.866 419.485 311.352 420.006C310.413 420.96 308.357 420.813 307.492 419.73L306.745 418.794L310.424 418.682L314.103 418.571V417.277C314.103 415.687 312.881 414.025 311.181 413.303C309.507 412.592 308.444 412.628 306.861 413.448ZM320.129 413.33C319.55 413.637 319.077 413.723 319.077 413.522C319.077 413.321 318.388 413.156 317.546 413.156H316.016V418.016V422.876H317.546H319.077V419.793C319.077 416.145 319.596 415.284 321.596 415.613C322.694 415.794 322.888 415.685 323.312 414.645C323.707 413.675 323.697 413.413 323.251 413.126C322.464 412.62 321.327 412.695 320.129 413.33ZM339.043 413.081C338.767 413.271 337.691 413.343 336.652 413.242L334.763 413.057V417.967V422.876H336.278H337.793L337.904 419.488C338.009 416.269 338.066 416.07 339.041 415.515C339.978 414.982 340.135 414.995 340.858 415.659C341.537 416.284 341.649 416.845 341.649 419.632V422.876H343.224H344.799L344.645 418.983C344.504 415.43 344.405 415.003 343.511 414.094C342.474 413.039 339.938 412.465 339.043 413.081ZM447.919 413.326C447.312 413.648 446.781 413.729 446.653 413.518C446.532 413.319 445.84 413.156 445.116 413.156H443.799V420.349V427.542H445.33H446.86V424.826V422.111L448.157 422.739C450.009 423.637 451.867 423.188 453.335 421.49C455.468 419.021 454.749 414.69 451.984 413.357C450.46 412.621 449.265 412.613 447.919 413.326ZM458.747 413.448C456.845 414.434 455.851 416.002 455.851 418.016C455.851 422.543 461.504 424.854 464.942 421.732L466.141 420.643L464.978 420.032C463.942 419.487 463.752 419.485 463.239 420.006C462.3 420.96 460.243 420.813 459.378 419.73L458.632 418.794L462.311 418.682L465.989 418.571V417.277C465.989 415.687 464.768 414.025 463.068 413.303C461.394 412.592 460.33 412.628 458.747 413.448ZM471.633 413.33C471.054 413.637 470.58 413.723 470.58 413.522C470.58 413.321 469.892 413.156 469.05 413.156H467.52V418.016V422.876H469.05H470.58V419.793C470.58 416.145 471.1 415.284 473.1 415.613C474.198 415.794 474.392 415.685 474.816 414.645C475.211 413.675 475.201 413.413 474.755 413.126C473.968 412.62 472.831 412.695 471.633 413.33ZM483.998 413.448C482.096 414.434 481.102 416.002 481.102 418.016C481.102 422.543 486.754 424.854 490.193 421.732L491.392 420.643L490.229 420.032C489.193 419.487 489.003 419.485 488.489 420.006C487.55 420.96 485.494 420.813 484.629 419.73L483.882 418.794L487.561 418.682L491.24 418.571V417.277C491.24 415.687 490.019 414.025 488.319 413.303C486.645 412.592 485.581 412.628 483.998 413.448ZM507.316 413.448C505.381 414.435 504.313 417.156 504.977 419.408C505.883 422.479 508.545 423.888 511.264 422.733C512.64 422.149 512.665 422.154 512.665 423.03C512.665 424.959 509.558 425.991 508.018 424.574C507.431 424.034 507.156 424.013 506.171 424.427C504.754 425.023 504.729 425.367 506.016 426.579C508.044 428.489 512.378 428.401 514.338 426.411L515.534 425.195L515.664 419.176L515.794 413.156H514.23C513.369 413.156 512.665 413.321 512.665 413.522C512.665 413.723 512.192 413.637 511.613 413.33C510.214 412.588 508.931 412.624 507.316 413.448ZM520.344 413.448C518.442 414.434 517.447 416.002 517.447 418.016C517.447 422.543 523.1 424.854 526.538 421.732L527.738 420.643L526.574 420.032C525.538 419.487 525.348 419.485 524.835 420.006C523.896 420.96 521.84 420.813 520.975 419.73L520.228 418.794L523.907 418.682L527.586 418.571V417.277C527.586 415.687 526.364 414.025 524.664 413.303C522.99 412.592 521.927 412.628 520.344 413.448ZM533.229 413.33C532.65 413.637 532.177 413.723 532.177 413.522C532.177 413.321 531.488 413.156 530.646 413.156H529.116V418.016V422.876H530.646H532.177V419.793C532.177 416.145 532.696 415.284 534.696 415.613C535.794 415.794 535.988 415.685 536.412 414.645C536.808 413.675 536.797 413.413 536.351 413.126C535.565 412.62 534.427 412.695 533.229 413.33ZM554.374 413.448C552.439 414.435 551.372 417.156 552.035 419.408C552.941 422.479 555.603 423.888 558.322 422.733C559.092 422.406 559.723 422.304 559.723 422.507C559.723 422.71 560.412 422.876 561.253 422.876H562.784V418.016V413.156H561.253C560.412 413.156 559.723 413.321 559.723 413.522C559.723 413.723 559.25 413.637 558.671 413.33C557.273 412.588 555.989 412.624 554.374 413.448ZM581.817 413.33C581.238 413.637 580.765 413.723 580.765 413.522C580.765 413.321 580.077 413.156 579.235 413.156H577.705V418.016V422.876H579.235H580.765V419.793C580.765 416.145 581.284 415.284 583.284 415.613C584.383 415.794 584.577 415.685 585 414.645C585.396 413.675 585.385 413.413 584.939 413.126C584.153 412.62 583.016 412.695 581.817 413.33ZM594.314 413.299C591.675 414.514 590.511 417.533 591.725 420.015C592.813 422.24 594.206 423.08 596.704 423.019C599.199 422.958 599.821 422.514 599.236 421.21C598.894 420.446 598.607 420.327 597.443 420.465C595.921 420.646 595.033 420.115 594.507 418.711C593.778 416.763 595.505 415.14 597.827 415.591C598.589 415.739 598.899 415.574 599.225 414.847C599.494 414.248 599.512 413.778 599.275 413.538C598.618 412.87 595.567 412.722 594.314 413.299ZM718.141 413.448C716.238 414.434 715.244 416.002 715.244 418.016C715.244 422.543 720.897 424.854 724.335 421.732L725.534 420.643L724.371 420.032C723.335 419.487 723.145 419.485 722.632 420.006C721.693 420.96 719.637 420.813 718.772 419.73L718.025 418.794L721.704 418.682L725.383 418.571V417.277C725.383 415.687 724.161 414.025 722.461 413.303C720.787 412.592 719.723 412.628 718.141 413.448ZM731.408 413.33C730.829 413.637 730.356 413.723 730.356 413.522C730.356 413.321 729.668 413.156 728.826 413.156H727.296V418.016V422.876H728.826H730.356V419.793C730.356 416.145 730.875 415.284 732.876 415.613C733.974 415.794 734.168 415.685 734.591 414.645C734.987 413.675 734.976 413.413 734.53 413.126C733.744 412.62 732.607 412.695 731.408 413.33ZM738.035 413.448C736.133 414.434 735.139 416.002 735.139 418.016C735.139 422.543 740.791 424.854 744.23 421.732L745.429 420.643L744.266 420.032C743.229 419.487 743.04 419.485 742.526 420.006C741.587 420.96 739.531 420.813 738.666 419.73L737.919 418.794L741.598 418.682L745.277 418.571V417.277C745.277 415.687 744.055 414.025 742.356 413.303C740.681 412.592 739.618 412.628 738.035 413.448ZM763.331 413.103C763.055 413.28 761.978 413.343 760.939 413.242L759.05 413.057V417.967V422.876H760.581H762.111L762.117 419.668C762.12 417.904 762.249 416.273 762.404 416.044C762.915 415.284 763.925 415.151 764.745 415.735C765.46 416.244 765.554 416.692 765.554 419.593V422.876H767.084H768.615V419.391C768.615 416.347 768.708 415.854 769.352 415.504C771.171 414.515 772.058 415.967 772.058 419.934V422.876H773.397H774.736V418.867C774.736 415.398 774.633 414.746 773.972 414.025C772.829 412.777 770.809 412.522 769.288 413.434C768.072 414.163 768.002 414.164 766.89 413.478C765.675 412.728 764.16 412.568 763.331 413.103ZM20.9236 417.408L23.1464 421.66L21.7148 424.601L20.2832 427.542H21.9998H23.7161L27.1617 420.548C29.0566 416.7 30.6069 413.464 30.6069 413.355C30.6069 413.245 29.8581 413.156 28.9426 413.156H27.2784L26.2217 415.683C25.6401 417.073 25.0548 418.21 24.9205 418.209C24.7866 418.208 24.0983 417.071 23.3917 415.682L22.1066 413.156H20.4037H18.7012L20.9236 417.408ZM219.868 417.408L222.091 421.66L220.659 424.601L219.228 427.542H220.944H222.661L226.106 420.548C228.001 416.7 229.551 413.464 229.551 413.355C229.551 413.245 228.803 413.156 227.887 413.156H226.223L225.166 415.683C224.585 417.073 223.999 418.21 223.865 418.209C223.731 418.208 223.043 417.071 222.336 415.682L221.051 413.156H219.348H217.646L219.868 417.408ZM359.895 417.408L362.117 421.66L360.686 424.601L359.254 427.542H360.971H362.687L366.133 420.548C368.028 416.7 369.578 413.464 369.578 413.355C369.578 413.245 368.829 413.156 367.914 413.156H366.249L365.193 415.683C364.611 417.073 364.026 418.21 363.891 418.209C363.758 418.208 363.069 417.071 362.363 415.682L361.078 413.156H359.375H357.672L359.895 417.408ZM433.351 417.408L435.574 421.66L434.142 424.601L432.711 427.542H434.427H436.144L439.589 420.548C441.484 416.7 443.034 413.464 443.034 413.355C443.034 413.245 442.286 413.156 441.37 413.156H439.706L438.649 415.683C438.068 417.073 437.482 418.21 437.348 418.209C437.214 418.208 436.526 417.071 435.819 415.682L434.534 413.156H432.831H431.129L433.351 417.408ZM586.504 418.016V422.876H588.034H589.565V418.016V413.156H588.034H586.504V418.016ZM747.19 417.062C747.19 420.655 747.263 421.041 748.098 421.89C749.23 423.041 751.847 423.486 754.005 422.896C756.234 422.286 756.755 421.108 756.755 416.675V413.156H755.465H754.175L753.999 416.245C753.803 419.691 753.352 420.543 751.725 420.543C750.296 420.543 749.868 419.462 749.868 415.852V413.156H748.529H747.19V417.062ZM50.0422 415.567C50.8667 416.404 50.5319 416.655 48.5884 416.655C47.5363 416.655 46.6755 416.515 46.6755 416.344C46.6755 415.715 47.6208 415.1 48.5884 415.1C49.1355 415.1 49.7897 415.31 50.0422 415.567ZM75.2929 415.567C76.1173 416.404 75.7826 416.655 73.8391 416.655C72.7869 416.655 71.9261 416.515 71.9261 416.344C71.9261 415.715 72.8715 415.1 73.8391 415.1C74.3861 415.1 75.0404 415.31 75.2929 415.567ZM111.639 415.567C112.463 416.404 112.128 416.655 110.185 416.655C109.133 416.655 108.272 416.515 108.272 416.344C108.272 415.715 109.217 415.1 110.185 415.1C110.732 415.1 111.386 415.31 111.639 415.567ZM248.987 415.567C249.811 416.404 249.477 416.655 247.533 416.655C246.481 416.655 245.62 416.515 245.62 416.344C245.62 415.715 246.565 415.1 247.533 415.1C248.08 415.1 248.734 415.31 248.987 415.567ZM274.237 415.567C275.062 416.404 274.727 416.655 272.784 416.655C271.732 416.655 270.871 416.515 270.871 416.344C270.871 415.715 271.816 415.1 272.784 415.1C273.331 415.1 273.985 415.31 274.237 415.567ZM310.583 415.567C311.408 416.404 311.073 416.655 309.129 416.655C308.077 416.655 307.216 416.515 307.216 416.344C307.216 415.715 308.162 415.1 309.129 415.1C309.676 415.1 310.331 415.31 310.583 415.567ZM462.47 415.567C463.294 416.404 462.959 416.655 461.016 416.655C459.964 416.655 459.103 416.515 459.103 416.344C459.103 415.715 460.048 415.1 461.016 415.1C461.563 415.1 462.217 415.31 462.47 415.567ZM487.72 415.567C488.545 416.404 488.21 416.655 486.267 416.655C485.214 416.655 484.354 416.515 484.354 416.344C484.354 415.715 485.299 415.1 486.267 415.1C486.814 415.1 487.468 415.31 487.72 415.567ZM524.066 415.567C524.89 416.404 524.556 416.655 522.612 416.655C521.56 416.655 520.699 416.515 520.699 416.344C520.699 415.715 521.645 415.1 522.612 415.1C523.159 415.1 523.813 415.31 524.066 415.567ZM721.863 415.567C722.687 416.404 722.353 416.655 720.409 416.655C719.357 416.655 718.496 416.515 718.496 416.344C718.496 415.715 719.441 415.1 720.409 415.1C720.956 415.1 721.61 415.31 721.863 415.567ZM741.757 415.567C742.582 416.404 742.247 416.655 740.303 416.655C739.251 416.655 738.391 416.515 738.391 416.344C738.391 415.715 739.336 415.1 740.303 415.1C740.851 415.1 741.505 415.31 741.757 415.567ZM38.7066 416.132C39.5785 416.934 39.6137 418.889 38.7732 419.832C37.3936 421.382 34.7197 420.184 34.7197 418.016C34.7197 415.881 37.1732 414.722 38.7066 416.132ZM87.295 416.132C88.1669 416.934 88.2021 418.889 87.3615 419.832C85.9819 421.382 83.3081 420.184 83.3081 418.016C83.3081 415.881 85.7616 414.722 87.295 416.132ZM99.9203 416.132C100.792 416.934 100.827 418.889 99.9869 419.832C98.6073 421.382 95.9334 420.184 95.9334 418.016C95.9334 415.881 98.3869 414.722 99.9203 416.132ZM237.651 416.132C238.523 416.934 238.558 418.889 237.718 419.832C236.338 421.382 233.664 420.184 233.664 418.016C233.664 415.881 236.118 414.722 237.651 416.132ZM286.24 416.132C287.111 416.934 287.147 418.889 286.306 419.832C284.927 421.382 282.253 420.184 282.253 418.016C282.253 415.881 284.706 414.722 286.24 416.132ZM298.865 416.132C299.737 416.934 299.772 418.889 298.931 419.832C297.552 421.382 294.878 420.184 294.878 418.016C294.878 415.881 297.332 414.722 298.865 416.132ZM353.575 416.132C354.447 416.934 354.482 418.889 353.641 419.832C352.262 421.382 349.588 420.184 349.588 418.016C349.588 415.881 352.041 414.722 353.575 416.132ZM450.751 416.132C451.623 416.934 451.659 418.889 450.818 419.832C449.438 421.382 446.765 420.184 446.765 418.016C446.765 415.881 449.218 414.722 450.751 416.132ZM499.34 416.132C500.212 416.934 500.247 418.889 499.406 419.832C498.027 421.382 495.353 420.184 495.353 418.016C495.353 415.881 497.806 414.722 499.34 416.132ZM511.965 416.132C512.837 416.934 512.872 418.889 512.032 419.832C510.652 421.382 507.978 420.184 507.978 418.016C507.978 415.881 510.432 414.722 511.965 416.132ZM559.023 416.132C559.895 416.934 559.93 418.889 559.09 419.832C557.71 421.382 555.036 420.184 555.036 418.016C555.036 415.881 557.49 414.722 559.023 416.132ZM572.031 416.132C572.903 416.934 572.938 418.889 572.098 419.832C570.718 421.382 568.044 420.184 568.044 418.016C568.044 415.881 570.498 414.722 572.031 416.132ZM23.1464 428.512C21.4466 429.436 20.6776 430.646 20.668 432.412C20.657 434.505 21.424 435.499 24.1159 436.88C26.0262 437.86 27.1636 438.925 27.1636 439.736C27.1636 439.841 26.8931 440.203 26.5625 440.539C25.7358 441.379 23.7796 441.302 22.2764 440.371C21.5874 439.944 20.9535 439.595 20.8678 439.595C20.7821 439.595 20.349 440.112 19.9056 440.745L19.0991 441.896L20.6225 442.921C21.7909 443.706 22.664 443.957 24.368 443.997C28.3867 444.089 30.2243 442.586 30.2243 439.207C30.2243 437.246 29.163 436.046 26.281 434.751C23.736 433.607 23.1353 432.929 23.7073 431.843C24.1871 430.932 26.2729 430.737 27.6311 431.476C28.3037 431.842 28.5417 431.764 29.1278 430.99C30.033 429.794 30.0169 429.62 28.9334 428.899C27.5404 427.971 24.5134 427.769 23.1464 428.512ZM62.7441 432.402C62.7441 433.698 62.5952 434.151 62.1702 434.151C61.7876 434.151 61.5963 434.54 61.5963 435.318C61.5963 436.095 61.7876 436.484 62.1702 436.484C62.6147 436.484 62.7441 436.996 62.7441 438.759C62.7441 441.887 63.303 443.334 64.7037 443.83C66.0106 444.293 68.1133 443.985 68.0735 443.337C68.0069 442.257 67.3902 441.348 66.7233 441.346C66.0986 441.345 65.98 441.001 65.882 438.914C65.7707 436.539 65.7902 436.484 66.7429 436.484C67.5708 436.484 67.7177 436.308 67.7177 435.318C67.7177 434.333 67.5689 434.151 66.7612 434.151C65.8828 434.151 65.8047 434.009 65.8047 432.402V430.652H64.2744H62.7441V432.402ZM93.7335 432.402C93.7335 433.698 93.5847 434.151 93.1596 434.151C92.777 434.151 92.5858 434.54 92.5858 435.318C92.5858 436.095 92.777 436.484 93.1596 436.484C93.6042 436.484 93.7335 436.996 93.7335 438.759C93.7335 441.887 94.2925 443.334 95.6931 443.83C97 444.293 99.1027 443.985 99.0629 443.337C98.9964 442.257 98.3796 441.348 97.7128 441.346C97.088 441.345 96.9694 441.001 96.8715 438.914C96.7601 436.539 96.7797 436.484 97.7323 436.484C98.5602 436.484 98.7071 436.308 98.7071 435.318C98.7071 434.333 98.5583 434.151 97.7507 434.151C96.8722 434.151 96.7942 434.009 96.7942 432.402V430.652H95.2639H93.7335V432.402ZM34.057 434.444C32.1227 435.43 31.0549 438.152 31.7187 440.403C32.6242 443.475 35.2863 444.883 38.0053 443.728C38.7758 443.401 39.4063 443.299 39.4063 443.502C39.4063 443.705 40.095 443.871 40.9367 443.871H42.467V439.011V434.151H40.9367C40.095 434.151 39.4063 434.316 39.4063 434.517C39.4063 434.718 38.9327 434.632 38.3542 434.325C36.9559 433.584 35.6727 433.619 34.057 434.444ZM71.7023 434.315C69.0751 435.478 67.8967 438.524 69.113 441.011C70.1976 443.228 71.5684 444.053 74.1719 444.053C77.6959 444.053 79.7052 442.206 79.7052 438.966C79.7052 435.087 75.4918 432.639 71.7023 434.315ZM83.5625 434.315C80.9353 435.478 79.7569 438.524 80.9731 441.011C82.0578 443.228 83.4286 444.053 86.0321 444.053C89.5561 444.053 91.5654 442.206 91.5654 438.966C91.5654 435.087 87.352 432.639 83.5625 434.315ZM45.2304 438.914C47.3358 443.023 47.8106 443.694 48.6886 443.799C49.6091 443.908 49.8218 443.666 50.9084 441.271L52.1105 438.623L52.8718 440.372C53.2904 441.334 53.7851 442.516 53.9706 442.997C54.209 443.614 54.6206 443.869 55.3697 443.865C56.335 443.859 56.6399 443.45 58.7269 439.363C59.9894 436.89 61.0798 434.706 61.1498 434.509C61.2202 434.312 60.5266 434.151 59.6092 434.151H57.9407L56.8572 436.679C56.2615 438.069 55.6509 439.206 55.5006 439.206C55.3502 439.206 54.787 438.112 54.2491 436.776C53.3891 434.639 53.1343 434.332 52.1392 434.229C51.0664 434.117 50.9459 434.26 49.8364 436.944L48.6653 439.776L47.428 436.964L46.1903 434.151H44.4905H42.7903L45.2304 438.914ZM38.7066 437.128C39.5785 437.929 39.6137 439.884 38.7732 440.827C37.3936 442.377 34.7197 441.179 34.7197 439.011C34.7197 436.876 37.1732 435.717 38.7066 437.128ZM75.9318 437.249C77.4334 438.935 76.2314 441.68 74.0877 441.46C72.6729 441.315 71.3526 439.652 71.7195 438.477C72.347 436.469 74.6413 435.799 75.9318 437.249ZM87.792 437.249C89.2936 438.935 88.0915 441.68 85.9479 441.46C84.5331 441.315 83.2128 439.652 83.5797 438.477C84.2071 436.469 86.5015 435.799 87.792 437.249Z" fill="white"/>
</svg>
