<svg width="28" height="28" viewBox="0 0 28 28" fill="none" xmlns="http://www.w3.org/2000/svg">
<path fill-rule="evenodd" clip-rule="evenodd" d="M14 28C6.26801 28 0 21.732 0 14C0 6.26801 6.26801 0 14 0C21.732 0 28 6.26801 28 14C28 21.732 21.732 28 14 28ZM21.0373 15.5853C21.1453 15.0988 21.2015 14.5951 21.2015 14.0775C21.2015 10.1998 18.0134 7.05526 14.079 7.05526C13.6646 7.05526 13.2581 7.09075 12.8612 7.15826C12.2246 6.7627 11.4713 6.53333 10.6644 6.53333C8.38244 6.53333 6.53333 8.35618 6.53333 10.6066C6.53333 11.3579 6.74055 12.0607 7.10053 12.6666C7.00658 13.1219 6.95654 13.5945 6.95654 14.0775C6.95654 17.9569 10.1455 21.1005 14.079 21.1005C14.5251 21.1005 14.9606 21.0599 15.3838 20.9828C15.9659 21.291 16.6297 21.4667 17.3365 21.4667C19.6176 21.4667 21.4667 19.643 21.4667 17.3943C21.4667 16.7442 21.3121 16.1306 21.0373 15.5853Z" fill="url(#paint0_linear_253_335)"/>
<path fill-rule="evenodd" clip-rule="evenodd" d="M17.7321 17.4339C17.4028 17.8944 16.9164 18.2579 16.2842 18.5158C15.66 18.772 14.9119 18.9027 14.0593 18.9027C13.0365 18.9027 12.1786 18.7253 11.5087 18.3747C11.0302 18.1203 10.636 17.7758 10.3366 17.3482C10.0336 16.9189 9.88086 16.4922 9.88086 16.0793C9.88086 15.8231 9.98095 15.5998 10.1776 15.4171C10.3725 15.2354 10.6228 15.1445 10.9213 15.1445C11.1654 15.1445 11.377 15.2163 11.5482 15.3592C11.7124 15.4968 11.8529 15.7002 11.9662 15.9607C12.0926 16.2463 12.2296 16.487 12.3744 16.6748C12.5149 16.8583 12.716 17.0115 12.9724 17.1318C13.2305 17.2512 13.5791 17.3136 14.0067 17.3136C14.5958 17.3136 15.0787 17.1889 15.4413 16.9448C15.7969 16.7068 15.969 16.4195 15.969 16.068C15.969 15.7919 15.8786 15.5738 15.6942 15.4024C15.4993 15.2241 15.2438 15.0856 14.9339 14.9887C14.6099 14.89 14.1709 14.7818 13.6274 14.6693C12.8872 14.5135 12.2594 14.3292 11.7607 14.1188C11.2497 13.905 10.8379 13.6082 10.5367 13.2368C10.2312 12.8586 10.0758 12.3851 10.0758 11.8286C10.0758 11.2989 10.2382 10.8202 10.5596 10.4082C10.8774 9.99881 11.3428 9.67855 11.9424 9.4613C12.5334 9.24578 13.2358 9.13672 14.0321 9.13672C14.6678 9.13672 15.2271 9.20942 15.6942 9.35311C16.164 9.49679 16.5591 9.69067 16.8699 9.93043C17.1833 10.1728 17.4169 10.4299 17.5626 10.6982C17.7101 10.9691 17.7857 11.2383 17.7857 11.4988C17.7857 11.7498 17.6873 11.9783 17.4933 12.1765C17.2984 12.3773 17.0516 12.4786 16.7619 12.4786C16.4985 12.4786 16.2913 12.4146 16.149 12.2899C16.0156 12.1731 15.8768 11.9913 15.7232 11.7316C15.5458 11.3993 15.3307 11.137 15.084 10.9518C14.8443 10.7717 14.4448 10.6817 13.8943 10.6817C13.385 10.6817 12.9688 10.7821 12.6607 10.9821C12.3639 11.1734 12.219 11.3941 12.219 11.6555C12.219 11.8147 12.2656 11.9489 12.3621 12.0631C12.4622 12.1861 12.6053 12.2916 12.7862 12.3817C12.9732 12.4743 13.1664 12.5487 13.3596 12.6006C13.5571 12.6552 13.889 12.7357 14.3447 12.8395C14.9216 12.9607 15.451 13.0983 15.919 13.2463C16.394 13.3952 16.8032 13.5787 17.1386 13.7942C17.4792 14.0132 17.7488 14.2937 17.9411 14.6295C18.1334 14.9679 18.2308 15.3834 18.2308 15.8672C18.2308 16.4454 18.0622 16.9725 17.7321 17.4339Z" fill="url(#paint1_linear_253_335)"/>
<defs>
<linearGradient id="paint0_linear_253_335" x1="5.9882" y1="-12.7105" x2="25.2568" y2="-1.92433" gradientUnits="userSpaceOnUse">
<stop stop-color="#FFCF88"/>
<stop offset="1" stop-color="white"/>
</linearGradient>
<linearGradient id="paint1_linear_253_335" x1="11.6666" y1="4.70347" x2="17.8068" y2="7.64225" gradientUnits="userSpaceOnUse">
<stop stop-color="#FFCF88"/>
<stop offset="1" stop-color="white"/>
</linearGradient>
</defs>
</svg>
