<svg width="28" height="28" viewBox="0 0 28 28" fill="none" xmlns="http://www.w3.org/2000/svg">
<path fill-rule="evenodd" clip-rule="evenodd" d="M14 28C6.26801 28 0 21.732 0 14C0 6.26801 6.26801 0 14 0C21.732 0 28 6.26801 28 14C28 21.732 21.732 28 14 28ZM14.4615 21.789C19.0514 21.7871 22.7844 18.0532 22.7862 13.4642C22.7871 11.2399 21.922 9.14831 20.3503 7.57482C18.7786 6.00125 16.6884 5.13429 14.4614 5.13333C9.87281 5.13333 6.13829 8.86765 6.13646 13.4576C6.13584 14.9249 6.51918 16.357 7.24769 17.6195L6.06667 21.9333L10.4798 20.7757C11.6957 21.4389 13.0647 21.7885 14.458 21.789H14.4615Z" fill="url(#paint0_linear_253_322)"/>
<path fill-rule="evenodd" clip-rule="evenodd" d="M10.6852 19.2692L8.0664 19.9562L8.7654 17.4029L8.60088 17.1411C7.90825 16.0394 7.54243 14.7662 7.54297 13.4587C7.54448 9.64376 10.6485 6.54004 14.4651 6.54004C16.3133 6.54068 18.0506 7.2613 19.3569 8.56919C20.6633 9.87708 21.3823 11.6155 21.3816 13.4643C21.3801 17.2796 18.2761 20.3836 14.4624 20.3836H14.4596C13.218 20.3832 12.0002 20.0496 10.9379 19.4192L10.6852 19.2692ZM18.6564 15.4444C18.6044 15.3577 18.4658 15.3056 18.2578 15.2015C18.0498 15.0974 17.0271 14.5942 16.8364 14.5247C16.6457 14.4553 16.507 14.4207 16.3684 14.6288C16.2297 14.837 15.8311 15.3056 15.7097 15.4444C15.5884 15.5832 15.4671 15.6007 15.2591 15.4965C15.0511 15.3924 14.3809 15.1728 13.5863 14.4641C12.968 13.9125 12.5505 13.2313 12.4292 13.0231C12.3078 12.8148 12.4162 12.7023 12.5204 12.5986C12.614 12.5054 12.7284 12.3556 12.8324 12.2342C12.9364 12.1127 12.9711 12.0259 13.0404 11.8872C13.1097 11.7483 13.0751 11.6269 13.023 11.5227C12.9711 11.4186 12.5551 10.3947 12.3817 9.97824C12.2129 9.57264 12.0414 9.62758 11.9137 9.62118C11.7925 9.61509 11.6537 9.61381 11.515 9.61381C11.3764 9.61381 11.151 9.66587 10.9604 9.87412C10.7697 10.0824 10.2323 10.5856 10.2323 11.6094C10.2323 12.6333 10.9777 13.6224 11.0817 13.7612C11.1857 13.9001 12.5484 16.001 14.6351 16.902C15.1314 17.1164 15.5188 17.2444 15.8209 17.3402C16.3192 17.4986 16.7727 17.4762 17.1311 17.4226C17.5307 17.3629 18.3617 16.9195 18.5351 16.4336C18.7084 15.9476 18.7084 15.5312 18.6564 15.4444Z" fill="url(#paint1_linear_253_322)"/>
<defs>
<linearGradient id="paint0_linear_253_322" x1="5.9882" y1="-12.7105" x2="25.2568" y2="-1.92433" gradientUnits="userSpaceOnUse">
<stop stop-color="#FFCF88"/>
<stop offset="1" stop-color="white"/>
</linearGradient>
<linearGradient id="paint1_linear_253_322" x1="10.5026" y1="0.255768" x2="20.0274" y2="5.5857" gradientUnits="userSpaceOnUse">
<stop stop-color="#FFCF88"/>
<stop offset="1" stop-color="white"/>
</linearGradient>
</defs>
</svg>
