<svg width="90" height="90" viewBox="0 0 90 90" fill="none" xmlns="http://www.w3.org/2000/svg">
<mask id="mask0_222_551" style="mask-type:alpha" maskUnits="userSpaceOnUse" x="4" y="4" width="82" height="82">
<path d="M33.75 82.5H56.25C75 82.5 82.5 75 82.5 56.25V33.75C82.5 15 75 7.5 56.25 7.5H33.75C15 7.5 7.5 15 7.5 33.75V56.25C7.5 75 15 82.5 33.75 82.5Z" stroke="#292D32" stroke-width="6" stroke-linecap="round" stroke-linejoin="round"/>
<path d="M67.5 29.0625V54.375C67.5 50.25 64.125 46.875 60 46.875H30C25.875 46.875 22.5 50.25 22.5 54.375V29.0625C22.5 24.9375 25.875 21.5625 30 21.5625H60C64.125 21.5625 67.5 24.9375 67.5 29.0625Z" stroke="#292D32" stroke-width="6" stroke-linecap="round" stroke-linejoin="round"/>
<path d="M71.25 59.0625H67.5" stroke="#292D32" stroke-width="6" stroke-linecap="round" stroke-linejoin="round"/>
<path d="M22.5 59.0625H18.75" stroke="#292D32" stroke-width="6" stroke-linecap="round" stroke-linejoin="round"/>
<path d="M67.5 52.5V41.25C67.5 37.125 64.125 33.75 60 33.75H30C25.875 33.75 22.5 37.125 22.5 41.25V52.5" stroke="#292D32" stroke-width="6" stroke-linecap="round" stroke-linejoin="round"/>
<path d="M67.5 54.375V59.0625H54.375C54.375 64.2375 50.175 68.4375 45 68.4375C39.825 68.4375 35.625 64.2375 35.625 59.0625H22.5V54.375C22.5 50.25 25.875 46.875 30 46.875H60C64.125 46.875 67.5 50.25 67.5 54.375Z" stroke="#292D32" stroke-width="6" stroke-linecap="round" stroke-linejoin="round"/>
</mask>
<g mask="url(#mask0_222_551)">
<rect width="90" height="90" fill="url(#paint0_linear_222_551)"/>
</g>
<defs>
<linearGradient id="paint0_linear_222_551" x1="19.2478" y1="-40.8553" x2="81.1825" y2="-6.18534" gradientUnits="userSpaceOnUse">
<stop stop-color="#FFCF88"/>
<stop offset="1" stop-color="white"/>
</linearGradient>
</defs>
</svg>
