<svg width="90" height="90" viewBox="0 0 90 90" fill="none" xmlns="http://www.w3.org/2000/svg">
<mask id="mask0_71_330" style="mask-type:alpha" maskUnits="userSpaceOnUse" x="4" y="4" width="82" height="82">
<path d="M33.75 82.5H56.25C75 82.5 82.5 75 82.5 56.25V33.75C82.5 15 75 7.5 56.25 7.5H33.75C15 7.5 7.5 15 7.5 33.75V56.25C7.5 75 15 82.5 33.75 82.5Z" stroke="white" stroke-width="6" stroke-linecap="round" stroke-linejoin="round"/>
<path d="M30 71.25H60C67.5 71.25 71.25 67.5 71.25 60V30C71.25 22.5 67.5 18.75 60 18.75H30C22.5 18.75 18.75 22.5 18.75 30V60C18.75 67.5 22.5 71.25 30 71.25Z" stroke="white" stroke-width="6" stroke-linecap="round" stroke-linejoin="round"/>
<path d="M18.75 35.625H28.05C33.225 35.625 37.425 39.825 37.425 45C37.425 50.175 33.225 54.375 28.05 54.375H18.75" stroke="white" stroke-width="6" stroke-linecap="round" stroke-linejoin="round"/>
<path d="M71.25 37.4625H60" stroke="white" stroke-width="6" stroke-linecap="round" stroke-linejoin="round"/>
<path d="M71.25 52.5H60" stroke="white" stroke-width="6" stroke-linecap="round" stroke-linejoin="round"/>
<path d="M27.001 45H27.376" stroke="white" stroke-width="6" stroke-miterlimit="10" stroke-linecap="round" stroke-linejoin="round"/>
</mask>
<g mask="url(#mask0_71_330)">
<rect width="90" height="90" fill="url(#paint0_linear_71_330)"/>
</g>
<defs>
<linearGradient id="paint0_linear_71_330" x1="19.2478" y1="-40.8553" x2="81.1825" y2="-6.18534" gradientUnits="userSpaceOnUse">
<stop stop-color="#FFCF88"/>
<stop offset="1" stop-color="white"/>
</linearGradient>
</defs>
</svg>
