<svg width="90" height="90" viewBox="0 0 90 90" fill="none" xmlns="http://www.w3.org/2000/svg">
<mask id="mask0_71_230" style="mask-type:alpha" maskUnits="userSpaceOnUse" x="4" y="4" width="82" height="82">
<path d="M10.0127 71.0627L28.5002 58.6502C31.4627 56.6627 35.7377 56.8877 38.4002 59.1752L39.6377 60.2627C42.5627 62.7752 47.2877 62.7752 50.2127 60.2627L65.8127 46.8752C68.7377 44.3627 73.4627 44.3627 76.3877 46.8752L82.5002 52.1252" stroke="white" stroke-width="6" stroke-linecap="round" stroke-linejoin="round"/>
<path d="M33.75 82.5H56.25C75 82.5 82.5 75 82.5 56.25V33.75C82.5 15 75 7.5 56.25 7.5H33.75C15 7.5 7.5 15 7.5 33.75V56.25C7.5 75 15 82.5 33.75 82.5Z" stroke="white" stroke-width="6" stroke-linecap="round" stroke-linejoin="round"/>
<path d="M33.75 37.5C37.8921 37.5 41.25 34.1421 41.25 30C41.25 25.8579 37.8921 22.5 33.75 22.5C29.6079 22.5 26.25 25.8579 26.25 30C26.25 34.1421 29.6079 37.5 33.75 37.5Z" stroke="white" stroke-width="6" stroke-linecap="round" stroke-linejoin="round"/>
</mask>
<g mask="url(#mask0_71_230)">
<rect width="90" height="90" fill="url(#paint0_linear_71_230)"/>
</g>
<defs>
<linearGradient id="paint0_linear_71_230" x1="19.2478" y1="-40.8553" x2="81.1825" y2="-6.18534" gradientUnits="userSpaceOnUse">
<stop stop-color="#FFCF88"/>
<stop offset="1" stop-color="white"/>
</linearGradient>
</defs>
</svg>
