<svg width="90" height="90" viewBox="0 0 90 90" fill="none" xmlns="http://www.w3.org/2000/svg">
<mask id="mask0_75_813" style="mask-type:alpha" maskUnits="userSpaceOnUse" x="8" y="4" width="78" height="82">
<path d="M33.4863 7.5L33.5988 13.2376C33.6738 16.2751 36.1863 18.75 39.2238 18.75H50.5489C53.6614 18.75 56.1739 16.2 56.1739 13.125V7.5" stroke="#292D32" stroke-width="6" stroke-linecap="round" stroke-linejoin="round"/>
<path d="M63.75 63.75L56.25 71.25L63.75 78.75" stroke="#292D32" stroke-width="6" stroke-miterlimit="10" stroke-linecap="round" stroke-linejoin="round"/>
<path d="M75 63.75L82.5 71.25L75 78.75" stroke="#292D32" stroke-width="6" stroke-miterlimit="10" stroke-linecap="round" stroke-linejoin="round"/>
<path d="M48.75 82.5H30C16.875 82.5 11.25 75 11.25 63.75V26.25C11.25 15 16.875 7.5 30 7.5H60C73.125 7.5 78.75 15 78.75 26.25V52.5" stroke="#292D32" stroke-width="6" stroke-miterlimit="10" stroke-linecap="round" stroke-linejoin="round"/>
</mask>
<g mask="url(#mask0_75_813)">
<rect width="90" height="90" fill="url(#paint0_linear_75_813)"/>
</g>
<defs>
<linearGradient id="paint0_linear_75_813" x1="19.2478" y1="-40.8553" x2="81.1825" y2="-6.18534" gradientUnits="userSpaceOnUse">
<stop stop-color="#FFCF88"/>
<stop offset="1" stop-color="white"/>
</linearGradient>
</defs>
</svg>
