<svg width="90" height="90" viewBox="0 0 90 90" fill="none" xmlns="http://www.w3.org/2000/svg">
<mask id="mask0_79_914" style="mask-type:alpha" maskUnits="userSpaceOnUse" x="1" y="1" width="88" height="88">
<path d="M8.05 2.5H21.9375C26.3875 2.5 27.5 3.6125 27.5 8.05V15.9625C27.5 20.4125 26.3875 21.5125 21.95 21.5125H8.05C3.6125 21.525 2.5 20.4125 2.5 15.975V8.05C2.5 3.6125 3.6125 2.5 8.05 2.5Z" stroke="white" stroke-width="3" stroke-linecap="round" stroke-linejoin="round"/>
<path d="M15 21.525V27.5" stroke="white" stroke-width="3" stroke-linecap="round" stroke-linejoin="round"/>
<path d="M2.5 16.25H27.5" stroke="white" stroke-width="3" stroke-linecap="round" stroke-linejoin="round"/>
<path d="M9.375 27.5H20.625" stroke="white" stroke-width="3" stroke-linecap="round" stroke-linejoin="round"/>
<path d="M68.05 2.5H81.9375C86.3875 2.5 87.5 3.6125 87.5 8.05V15.9625C87.5 20.4125 86.3875 21.5125 81.95 21.5125H68.05C63.6125 21.525 62.5 20.4125 62.5 15.975V8.05C62.5 3.6125 63.6125 2.5 68.05 2.5Z" stroke="white" stroke-width="3" stroke-linecap="round" stroke-linejoin="round"/>
<path d="M75 21.525V27.5" stroke="white" stroke-width="3" stroke-linecap="round" stroke-linejoin="round"/>
<path d="M62.5 16.25H87.5" stroke="white" stroke-width="3" stroke-linecap="round" stroke-linejoin="round"/>
<path d="M69.375 27.5H80.625" stroke="white" stroke-width="3" stroke-linecap="round" stroke-linejoin="round"/>
<path d="M68.05 62.5H81.9375C86.3875 62.5 87.5 63.6125 87.5 68.05V75.9625C87.5 80.4125 86.3875 81.5125 81.95 81.5125H68.05C63.6125 81.525 62.5 80.4125 62.5 75.975V68.05C62.5 63.6125 63.6125 62.5 68.05 62.5Z" stroke="white" stroke-width="3" stroke-linecap="round" stroke-linejoin="round"/>
<path d="M75 81.525V87.5" stroke="white" stroke-width="3" stroke-linecap="round" stroke-linejoin="round"/>
<path d="M62.5 76.25H87.5" stroke="white" stroke-width="3" stroke-linecap="round" stroke-linejoin="round"/>
<path d="M69.375 87.5H80.625" stroke="white" stroke-width="3" stroke-linecap="round" stroke-linejoin="round"/>
<path d="M8.05 62.5H21.9375C26.3875 62.5 27.5 63.6125 27.5 68.05V75.9625C27.5 80.4125 26.3875 81.5125 21.95 81.5125H8.05C3.6125 81.525 2.5 80.4125 2.5 75.975V68.05C2.5 63.6125 3.6125 62.5 8.05 62.5Z" stroke="white" stroke-width="3" stroke-linecap="round" stroke-linejoin="round"/>
<path d="M15 81.525V87.5" stroke="white" stroke-width="3" stroke-linecap="round" stroke-linejoin="round"/>
<path d="M2.5 76.25H27.5" stroke="white" stroke-width="3" stroke-linecap="round" stroke-linejoin="round"/>
<path d="M9.375 87.5H20.625" stroke="white" stroke-width="3" stroke-linecap="round" stroke-linejoin="round"/>
<path d="M41.25 40.4759H47.1058C48.4039 40.4759 49.4567 41.6442 49.4567 42.8269C49.4567 44.125 48.4039 45.1779 47.1058 45.1779H41.25V40.4759Z" stroke="white" stroke-width="3" stroke-miterlimit="10" stroke-linecap="round" stroke-linejoin="round"/>
<path d="M41.25 45.1634H47.9423C49.4279 45.1634 50.625 46.2163 50.625 47.5144C50.625 48.8125 49.4279 49.8654 47.9423 49.8654H41.25V45.1634Z" stroke="white" stroke-width="3" stroke-miterlimit="10" stroke-linecap="round" stroke-linejoin="round"/>
<path d="M45.3462 49.8511V52.202" stroke="white" stroke-width="3" stroke-miterlimit="10" stroke-linecap="round" stroke-linejoin="round"/>
<path d="M42.418 49.8511V52.202" stroke="white" stroke-width="3" stroke-miterlimit="10" stroke-linecap="round" stroke-linejoin="round"/>
<path d="M45.3462 38.125V40.476" stroke="white" stroke-width="3" stroke-miterlimit="10" stroke-linecap="round" stroke-linejoin="round"/>
<path d="M42.418 38.125V40.476" stroke="white" stroke-width="3" stroke-miterlimit="10" stroke-linecap="round" stroke-linejoin="round"/>
<path d="M43.4712 40.4759H39.375" stroke="white" stroke-width="3" stroke-miterlimit="10" stroke-linecap="round" stroke-linejoin="round"/>
<path d="M43.4712 49.8511H39.375" stroke="white" stroke-width="3" stroke-miterlimit="10" stroke-linecap="round" stroke-linejoin="round"/>
<path d="M45 57.5C51.9036 57.5 57.5 51.9036 57.5 45C57.5 38.0964 51.9036 32.5 45 32.5C38.0964 32.5 32.5 38.0964 32.5 45C32.5 51.9036 38.0964 57.5 45 57.5Z" stroke="white" stroke-width="2" stroke-miterlimit="10"/>
<line x1="36" y1="14" x2="54" y2="14" stroke="white" stroke-width="2" stroke-linecap="round"/>
<line x1="36" y1="74" x2="54" y2="74" stroke="white" stroke-width="2" stroke-linecap="round"/>
<line x1="74" y1="54" x2="74" y2="36" stroke="white" stroke-width="2" stroke-linecap="round"/>
<line x1="14" y1="54" x2="14" y2="36" stroke="white" stroke-width="2" stroke-linecap="round"/>
</mask>
<g mask="url(#mask0_79_914)">
<rect width="90" height="90" fill="url(#paint0_linear_79_914)"/>
</g>
<defs>
<linearGradient id="paint0_linear_79_914" x1="19.2478" y1="-40.8553" x2="81.1825" y2="-6.18534" gradientUnits="userSpaceOnUse">
<stop stop-color="#FFCF88"/>
<stop offset="1" stop-color="white"/>
</linearGradient>
</defs>
</svg>
