<svg width="90" height="90" viewBox="0 0 90 90" fill="none" xmlns="http://www.w3.org/2000/svg">
<mask id="mask0_75_905" style="mask-type:alpha" maskUnits="userSpaceOnUse" x="4" y="4" width="82" height="86">
<path d="M17.9985 75.9375C17.9985 74.2806 16.6554 72.9375 14.9985 72.9375C13.3417 72.9375 11.9985 74.2806 11.9985 75.9375H17.9985ZM30.0361 71.325L31.042 68.4987C31.0361 68.4966 31.0301 68.4945 31.0242 68.4924L30.0361 71.325ZM18.7485 67.3875L17.7426 70.2138C17.7485 70.2159 17.7545 70.218 17.7604 70.2201L18.7485 67.3875ZM30.7861 62.775C30.7861 64.4319 32.1292 65.775 33.7861 65.775C35.4429 65.775 36.7861 64.4319 36.7861 62.775H30.7861ZM27.3735 52.5C27.3735 50.8431 26.0304 49.5 24.3735 49.5C22.7167 49.5 21.3735 50.8431 21.3735 52.5H27.3735ZM21.3735 86.25C21.3735 87.9069 22.7167 89.25 24.3735 89.25C26.0304 89.25 27.3735 87.9069 27.3735 86.25H21.3735ZM11.9985 75.9375C11.9985 81.1048 16.03 85.5 21.2611 85.5V79.5C19.5922 79.5 17.9985 78.0452 17.9985 75.9375H11.9985ZM21.2611 85.5H28.311V79.5H21.2611V85.5ZM28.311 85.5C33.1103 85.5 36.7485 81.4607 36.7485 76.7625H30.7485C30.7485 78.4393 29.5117 79.5 28.311 79.5V85.5ZM36.7485 76.7625C36.7485 74.6189 36.2728 72.7322 35.0865 71.213C33.9268 69.7279 32.3779 68.9742 31.042 68.4987L29.0301 74.1513C29.9067 74.4633 30.2141 74.7222 30.3575 74.9058C30.4743 75.0553 30.7485 75.4936 30.7485 76.7625H36.7485ZM31.0242 68.4924L19.7367 64.5549L17.7604 70.2201L29.048 74.1576L31.0242 68.4924ZM19.7545 64.5612C18.8589 64.2424 18.5591 63.9889 18.422 63.8143C18.3137 63.6764 18.0361 63.2453 18.0361 61.95H12.0361C12.0361 64.1047 12.5084 65.9986 13.7032 67.5201C14.8692 69.0049 16.4256 69.7451 17.7426 70.2138L19.7545 64.5612ZM18.0361 61.95C18.0361 60.2976 19.2853 59.2125 20.4735 59.2125V53.2125C15.6617 53.2125 12.0361 57.3025 12.0361 61.95H18.0361ZM20.4735 59.2125H27.5235V53.2125H20.4735V59.2125ZM27.5235 59.2125C29.1924 59.2125 30.7861 60.6673 30.7861 62.775H36.7861C36.7861 57.6077 32.7546 53.2125 27.5235 53.2125V59.2125ZM21.3735 52.5V86.25H27.3735V52.5H21.3735Z" fill="white"/>
<path d="M56.8765 12.9856V9.98563C55.2196 9.98563 53.8765 11.3288 53.8765 12.9856H56.8765ZM56.8765 23.9568H53.8765C53.8765 25.6136 55.2196 26.9568 56.8765 26.9568V23.9568ZM56.8765 23.9231V20.9231C55.2196 20.9231 53.8765 22.2662 53.8765 23.9231H56.8765ZM56.8765 34.8942H53.8765C53.8765 36.5511 55.2196 37.8942 56.8765 37.8942V34.8942ZM69.4354 34.8607C69.4354 33.2038 68.0922 31.8607 66.4354 31.8607C64.7785 31.8607 63.4354 33.2038 63.4354 34.8607H69.4354ZM63.4354 40.3462C63.4354 42.0031 64.7785 43.3462 66.4354 43.3462C68.0922 43.3462 69.4354 42.0031 69.4354 40.3462H63.4354ZM62.6023 34.8607C62.6023 33.2038 61.2591 31.8607 59.6023 31.8607C57.9454 31.8607 56.6023 33.2038 56.6023 34.8607H62.6023ZM56.6023 40.3462C56.6023 42.0031 57.9454 43.3462 59.6023 43.3462C61.2591 43.3462 62.6023 42.0031 62.6023 40.3462H56.6023ZM69.4354 7.5C69.4354 5.84315 68.0922 4.5 66.4354 4.5C64.7785 4.5 63.4354 5.84315 63.4354 7.5H69.4354ZM63.4354 12.9856C63.4354 14.6424 64.7785 15.9856 66.4354 15.9856C68.0922 15.9856 69.4354 14.6424 69.4354 12.9856H63.4354ZM62.6023 7.5C62.6023 5.84315 61.2591 4.5 59.6023 4.5C57.9454 4.5 56.6023 5.84315 56.6023 7.5H62.6023ZM56.6023 12.9856C56.6023 14.6424 57.9454 15.9856 59.6023 15.9856C61.2591 15.9856 62.6023 14.6424 62.6023 12.9856H56.6023ZM62.0592 15.9856C63.716 15.9856 65.0592 14.6425 65.0592 12.9856C65.0592 11.3288 63.716 9.98563 62.0592 9.98563V15.9856ZM52.5015 9.98563C50.8446 9.98563 49.5015 11.3288 49.5015 12.9856C49.5015 14.6425 50.8446 15.9856 52.5015 15.9856V9.98563ZM62.0592 37.8607C63.716 37.8607 65.0592 36.5175 65.0592 34.8607C65.0592 33.2038 63.716 31.8607 62.0592 31.8607V37.8607ZM52.5015 31.8607C50.8446 31.8607 49.5015 33.2038 49.5015 34.8607C49.5015 36.5175 50.8446 37.8607 52.5015 37.8607V31.8607ZM56.8765 15.9856H70.5399V9.98563H56.8765V15.9856ZM70.5399 15.9856C71.8184 15.9856 73.0255 17.2734 73.0255 18.4712H79.0255C79.0255 14.1498 75.3191 9.98563 70.5399 9.98563V15.9856ZM73.0255 18.4712C73.0255 19.8432 71.9119 20.9568 70.5399 20.9568V26.9568C75.2256 26.9568 79.0255 23.1569 79.0255 18.4712H73.0255ZM70.5399 20.9568H56.8765V26.9568H70.5399V20.9568ZM59.8765 23.9568V12.9856H53.8765V23.9568H59.8765ZM56.8765 26.9231H72.4918V20.9231H56.8765V26.9231ZM72.4918 26.9231C74.6822 26.9231 75.7515 28.3935 75.7515 29.4086H81.7515C81.7515 24.3661 77.2341 20.9231 72.4918 20.9231V26.9231ZM75.7515 29.4086C75.7515 30.4238 74.6822 31.8942 72.4918 31.8942V37.8942C77.2341 37.8942 81.7515 34.4512 81.7515 29.4086H75.7515ZM72.4918 31.8942H56.8765V37.8942H72.4918V31.8942ZM59.8765 34.8942V23.9231H53.8765V34.8942H59.8765ZM63.4354 34.8607V40.3462H69.4354V34.8607H63.4354ZM56.6023 34.8607V40.3462H62.6023V34.8607H56.6023ZM63.4354 7.5V12.9856H69.4354V7.5H63.4354ZM56.6023 7.5V12.9856H62.6023V7.5H56.6023ZM62.0592 9.98563H52.5015V15.9856H62.0592V9.98563ZM62.0592 31.8607H52.5015V37.8607H62.0592V31.8607Z" fill="white"/>
<path d="M82.4966 56.25C82.4966 70.7625 70.7591 82.5 56.2466 82.5L60.184 75.9375" stroke="white" stroke-width="6" stroke-linecap="round" stroke-linejoin="round"/>
<path d="M7.49805 33.75C7.49805 19.2375 19.2355 7.5 33.748 7.5L29.8106 14.0625" stroke="white" stroke-width="6" stroke-linecap="round" stroke-linejoin="round"/>
</mask>
<g mask="url(#mask0_75_905)">
<rect width="90" height="90" fill="url(#paint0_linear_75_905)"/>
</g>
<defs>
<linearGradient id="paint0_linear_75_905" x1="19.2478" y1="-40.8553" x2="81.1825" y2="-6.18534" gradientUnits="userSpaceOnUse">
<stop stop-color="#FFCF88"/>
<stop offset="1" stop-color="white"/>
</linearGradient>
</defs>
</svg>
