<svg width="90" height="90" viewBox="0 0 90 90" fill="none" xmlns="http://www.w3.org/2000/svg">
<mask id="mask0_71_410" style="mask-type:alpha" maskUnits="userSpaceOnUse" x="4" y="4" width="82" height="82">
<path d="M82.5 56.25C82.5 70.7625 70.7625 82.5 56.25 82.5L60.1875 75.9375" stroke="white" stroke-width="6" stroke-linecap="round" stroke-linejoin="round"/>
<path d="M7.5 33.75C7.5 19.2375 19.2375 7.5 33.75 7.5L29.8125 14.0625" stroke="white" stroke-width="6" stroke-linecap="round" stroke-linejoin="round"/>
<path d="M51.375 16.6875L66.3 25.3125L81.075 16.725" stroke="white" stroke-width="6" stroke-linecap="round" stroke-linejoin="round"/>
<path d="M66.2998 40.575V25.2749" stroke="white" stroke-width="6" stroke-linecap="round" stroke-linejoin="round"/>
<path d="M62.775 8.2875L53.775 13.2748C51.75 14.3998 50.0625 17.2498 50.0625 19.5748V29.1C50.0625 31.425 51.7125 34.2749 53.775 35.3999L62.775 40.3875C64.6875 41.475 67.8375 41.475 69.7875 40.3875L78.7875 35.3999C80.8125 34.2749 82.5 31.425 82.5 29.1V19.5748C82.5 17.2498 80.85 14.3998 78.7875 13.2748L69.7875 8.2875C67.875 7.2375 64.725 7.2375 62.775 8.2875Z" stroke="white" stroke-width="6" stroke-linecap="round" stroke-linejoin="round"/>
<path d="M8.8125 57.9375L23.7 66.5625L38.5125 57.975" stroke="white" stroke-width="6" stroke-linecap="round" stroke-linejoin="round"/>
<path d="M23.7002 81.825V66.5249" stroke="white" stroke-width="6" stroke-linecap="round" stroke-linejoin="round"/>
<path d="M20.2125 49.5375L11.2125 54.5248C9.18752 55.6498 7.5 58.4998 7.5 60.8248V70.35C7.5 72.675 9.15002 75.5249 11.2125 76.6499L20.2125 81.6375C22.125 82.725 25.275 82.725 27.225 81.6375L36.225 76.6499C38.25 75.5249 39.9375 72.675 39.9375 70.35V60.8248C39.9375 58.4998 38.2875 55.6498 36.225 54.5248L27.225 49.5375C25.275 48.4875 22.125 48.4875 20.2125 49.5375Z" stroke="white" stroke-width="6" stroke-linecap="round" stroke-linejoin="round"/>
</mask>
<g mask="url(#mask0_71_410)">
<rect width="90" height="90" fill="url(#paint0_linear_71_410)"/>
</g>
<defs>
<linearGradient id="paint0_linear_71_410" x1="19.2478" y1="-40.8553" x2="81.1825" y2="-6.18534" gradientUnits="userSpaceOnUse">
<stop stop-color="#FFCF88"/>
<stop offset="1" stop-color="white"/>
</linearGradient>
</defs>
</svg>
