<svg width="90" height="90" viewBox="0 0 90 90" fill="none" xmlns="http://www.w3.org/2000/svg">
<mask id="mask0_71_435" style="mask-type:alpha" maskUnits="userSpaceOnUse" x="8" y="4" width="74" height="82">
<path d="M78.75 26.25V63.75C78.75 75 73.125 82.5 60 82.5H30C16.875 82.5 11.25 75 11.25 63.75V26.25C11.25 15 16.875 7.5 30 7.5H60C73.125 7.5 78.75 15 78.75 26.25Z" stroke="white" stroke-width="6" stroke-miterlimit="10" stroke-linecap="round" stroke-linejoin="round"/>
<path d="M58.125 7.5V36.9749C58.125 38.6249 56.1749 39.4499 54.9749 38.3624L46.2751 30.3376C45.5626 29.6626 44.4374 29.6626 43.7249 30.3376L35.0251 38.3624C33.8251 39.4499 31.875 38.6249 31.875 36.9749V7.5H58.125Z" stroke="white" stroke-width="6" stroke-miterlimit="10" stroke-linecap="round" stroke-linejoin="round"/>
<path d="M49.6875 52.5H65.625" stroke="white" stroke-width="6" stroke-miterlimit="10" stroke-linecap="round" stroke-linejoin="round"/>
<path d="M33.75 67.5H65.625" stroke="white" stroke-width="6" stroke-miterlimit="10" stroke-linecap="round" stroke-linejoin="round"/>
</mask>
<g mask="url(#mask0_71_435)">
<rect width="90" height="90" fill="url(#paint0_linear_71_435)"/>
</g>
<defs>
<linearGradient id="paint0_linear_71_435" x1="19.2478" y1="-40.8553" x2="81.1825" y2="-6.18534" gradientUnits="userSpaceOnUse">
<stop stop-color="#FFCF88"/>
<stop offset="1" stop-color="white"/>
</linearGradient>
</defs>
</svg>
